<svg width="407" height="187" viewBox="0 0 407 187" fill="none" xmlns="http://www.w3.org/2000/svg">
<g filter="url(#filter0_d_39_2462)">
<rect x="12" y="13" width="378" height="122" rx="12.526" fill="white"/>
</g>
<path d="M46.387 52C46.2603 52 46.197 51.9367 46.197 51.81V38.89C46.197 38.7633 46.2603 38.7 46.387 38.7H49.123C49.2497 38.7 49.313 38.7633 49.313 38.89V49.112H55.431C55.5577 49.112 55.621 49.1753 55.621 49.302V51.81C55.621 51.9367 55.5577 52 55.431 52H46.387ZM59.6916 52.19C58.7163 52.19 57.9309 51.9113 57.3356 51.354C56.7403 50.7967 56.4426 49.9987 56.4426 48.96C56.4426 47.972 56.7909 47.2183 57.4876 46.699C58.1843 46.1797 59.1279 45.92 60.3186 45.92C61.0406 45.92 61.7563 46.0087 62.4656 46.186V46.034C62.4656 45.6033 62.3389 45.2613 62.0856 45.008C61.8323 44.742 61.4713 44.609 61.0026 44.609C60.4579 44.609 60.0273 44.8243 59.7106 45.255C59.6599 45.331 59.6093 45.3817 59.5586 45.407C59.5079 45.4323 59.4319 45.445 59.3306 45.445H56.9366C56.8479 45.445 56.8036 45.4007 56.8036 45.312L56.8226 45.141C56.9873 44.3177 57.4306 43.6337 58.1526 43.089C58.8873 42.5443 59.8373 42.272 61.0026 42.272C62.4339 42.272 63.5169 42.6077 64.2516 43.279C64.9863 43.9503 65.3536 44.9953 65.3536 46.414V50.062C65.3536 50.4673 65.3789 50.803 65.4296 51.069C65.4803 51.3223 65.5753 51.5693 65.7146 51.81L65.7526 51.905C65.7526 51.9683 65.6956 52 65.5816 52H62.6556C62.5289 52 62.4656 51.9367 62.4656 51.81V50.898C62.1996 51.2907 61.8196 51.6073 61.3256 51.848C60.8316 52.076 60.2869 52.19 59.6916 52.19ZM60.5086 49.834C61.0533 49.834 61.5029 49.682 61.8576 49.378C62.2123 49.074 62.4149 48.656 62.4656 48.124C61.8196 47.9593 61.2496 47.877 60.7556 47.877C60.3123 47.877 59.9703 47.9783 59.7296 48.181C59.4889 48.371 59.3686 48.618 59.3686 48.922C59.3686 49.2133 59.4636 49.4413 59.6536 49.606C59.8563 49.758 60.1413 49.834 60.5086 49.834ZM70.7843 52.19C69.7077 52.19 68.8717 51.8923 68.2763 51.297C67.681 50.689 67.3833 49.8213 67.3833 48.694V42.652C67.3833 42.5253 67.4467 42.462 67.5733 42.462H70.1573C70.284 42.462 70.3473 42.5253 70.3473 42.652V47.801C70.3473 48.3963 70.4487 48.8333 70.6513 49.112C70.8667 49.3907 71.1897 49.53 71.6203 49.53C72.8743 49.53 73.5013 48.542 73.5013 46.566V42.652C73.5013 42.5253 73.5647 42.462 73.6913 42.462H76.2753C76.402 42.462 76.4653 42.5253 76.4653 42.652V51.81C76.4653 51.9367 76.402 52 76.2753 52H73.6913C73.5647 52 73.5013 51.9367 73.5013 51.81V50.822C73.2227 51.24 72.8427 51.5757 72.3613 51.829C71.88 52.0697 71.3543 52.19 70.7843 52.19ZM78.7804 52C78.6537 52 78.5904 51.9367 78.5904 51.81V42.652C78.5904 42.5253 78.6537 42.462 78.7804 42.462H81.3644C81.491 42.462 81.5544 42.5253 81.5544 42.652V43.64C81.833 43.222 82.213 42.8927 82.6944 42.652C83.1757 42.3987 83.7014 42.272 84.2714 42.272C85.348 42.272 86.184 42.576 86.7794 43.184C87.3747 43.7793 87.6724 44.6407 87.6724 45.768V51.81C87.6724 51.9367 87.609 52 87.4824 52H84.8984C84.7717 52 84.7084 51.9367 84.7084 51.81V46.661C84.7084 46.0657 84.6007 45.6287 84.3854 45.35C84.1827 45.0713 83.866 44.932 83.4354 44.932C82.1814 44.932 81.5544 45.92 81.5544 47.896V51.81C81.5544 51.9367 81.491 52 81.3644 52H78.7804ZM94.2434 52.19C93.2807 52.19 92.4194 51.9873 91.6594 51.582C90.9121 51.164 90.3294 50.5813 89.9114 49.834C89.4934 49.074 89.2844 48.2063 89.2844 47.231C89.2844 46.2557 89.4934 45.3943 89.9114 44.647C90.3294 43.887 90.9121 43.3043 91.6594 42.899C92.4194 42.481 93.2807 42.272 94.2434 42.272C95.6494 42.272 96.7387 42.6393 97.5114 43.374C98.2841 44.096 98.7337 45.0207 98.8604 46.148V46.224C98.8604 46.3127 98.8161 46.357 98.7274 46.357H96.1814C96.1054 46.357 96.0484 46.3443 96.0104 46.319C95.9724 46.2937 95.9407 46.243 95.9154 46.167C95.7761 45.7743 95.5734 45.4703 95.3074 45.255C95.0541 45.0397 94.6931 44.932 94.2244 44.932C93.6671 44.932 93.2174 45.1283 92.8754 45.521C92.5334 45.901 92.3624 46.471 92.3624 47.231C92.3624 47.953 92.5334 48.5167 92.8754 48.922C93.2301 49.3273 93.6797 49.53 94.2244 49.53C94.6804 49.53 95.0414 49.416 95.3074 49.188C95.5734 48.96 95.7824 48.6433 95.9344 48.238C95.9851 48.124 96.0737 48.067 96.2004 48.067H98.7464C98.8477 48.067 98.8921 48.1367 98.8794 48.276C98.8034 48.9727 98.5817 49.6187 98.2144 50.214C97.8471 50.7967 97.3277 51.2717 96.6564 51.639C95.9977 52.0063 95.1934 52.19 94.2434 52.19ZM100.619 52C100.493 52 100.429 51.9367 100.429 51.81V38.89C100.429 38.7633 100.493 38.7 100.619 38.7H103.203C103.33 38.7 103.393 38.7633 103.393 38.89V43.545C103.773 43.127 104.21 42.8103 104.704 42.595C105.198 42.3797 105.711 42.272 106.243 42.272C107.333 42.272 108.175 42.5697 108.77 43.165C109.366 43.7603 109.663 44.628 109.663 45.768V51.81C109.663 51.9367 109.6 52 109.473 52H106.889C106.763 52 106.699 51.9367 106.699 51.81V46.661C106.699 46.053 106.598 45.616 106.395 45.35C106.193 45.0713 105.857 44.932 105.388 44.932C104.742 44.932 104.248 45.141 103.906 45.559C103.564 45.977 103.393 46.661 103.393 47.611V51.81C103.393 51.9367 103.33 52 103.203 52H100.619ZM116.224 55.762C116.097 55.762 116.034 55.6987 116.034 55.572V42.652C116.034 42.5253 116.097 42.462 116.224 42.462H118.808C118.934 42.462 118.998 42.5253 118.998 42.652V43.374C119.694 42.6393 120.53 42.272 121.506 42.272C122.316 42.272 123.038 42.4747 123.672 42.88C124.318 43.2853 124.818 43.8617 125.173 44.609C125.54 45.3563 125.724 46.2303 125.724 47.231C125.724 48.2317 125.54 49.1057 125.173 49.853C124.818 50.6003 124.318 51.1767 123.672 51.582C123.038 51.9873 122.316 52.19 121.506 52.19C120.53 52.19 119.694 51.8543 118.998 51.183V55.572C118.998 55.6987 118.934 55.762 118.808 55.762H116.224ZM120.803 49.53C121.385 49.53 121.841 49.321 122.171 48.903C122.513 48.485 122.684 47.9277 122.684 47.231C122.684 46.5343 122.513 45.977 122.171 45.559C121.841 45.141 121.385 44.932 120.803 44.932C120.22 44.932 119.758 45.141 119.416 45.559C119.086 45.977 118.922 46.5343 118.922 47.231C118.922 47.9277 119.086 48.485 119.416 48.903C119.758 49.321 120.22 49.53 120.803 49.53ZM127.524 52C127.397 52 127.334 51.9367 127.334 51.81V38.89C127.334 38.7633 127.397 38.7 127.524 38.7H130.108C130.234 38.7 130.298 38.7633 130.298 38.89V51.81C130.298 51.9367 130.234 52 130.108 52H127.524ZM135.154 52.19C134.178 52.19 133.393 51.9113 132.798 51.354C132.202 50.7967 131.905 49.9987 131.905 48.96C131.905 47.972 132.253 47.2183 132.95 46.699C133.646 46.1797 134.59 45.92 135.781 45.92C136.503 45.92 137.218 46.0087 137.928 46.186V46.034C137.928 45.6033 137.801 45.2613 137.548 45.008C137.294 44.742 136.933 44.609 136.465 44.609C135.92 44.609 135.489 44.8243 135.173 45.255C135.122 45.331 135.071 45.3817 135.021 45.407C134.97 45.4323 134.894 45.445 134.793 45.445H132.399C132.31 45.445 132.266 45.4007 132.266 45.312L132.285 45.141C132.449 44.3177 132.893 43.6337 133.615 43.089C134.349 42.5443 135.299 42.272 136.465 42.272C137.896 42.272 138.979 42.6077 139.714 43.279C140.448 43.9503 140.816 44.9953 140.816 46.414V50.062C140.816 50.4673 140.841 50.803 140.892 51.069C140.942 51.3223 141.037 51.5693 141.177 51.81L141.215 51.905C141.215 51.9683 141.158 52 141.044 52H138.118C137.991 52 137.928 51.9367 137.928 51.81V50.898C137.662 51.2907 137.282 51.6073 136.788 51.848C136.294 52.076 135.749 52.19 135.154 52.19ZM135.971 49.834C136.515 49.834 136.965 49.682 137.32 49.378C137.674 49.074 137.877 48.656 137.928 48.124C137.282 47.9593 136.712 47.877 136.218 47.877C135.774 47.877 135.432 47.9783 135.192 48.181C134.951 48.371 134.831 48.618 134.831 48.922C134.831 49.2133 134.926 49.4413 135.116 49.606C135.318 49.758 135.603 49.834 135.971 49.834ZM143.035 52C142.909 52 142.845 51.9367 142.845 51.81V42.652C142.845 42.5253 142.909 42.462 143.035 42.462H145.619C145.746 42.462 145.809 42.5253 145.809 42.652V43.64C146.088 43.222 146.468 42.8927 146.949 42.652C147.431 42.3987 147.956 42.272 148.526 42.272C149.603 42.272 150.439 42.576 151.034 43.184C151.63 43.7793 151.927 44.6407 151.927 45.768V51.81C151.927 51.9367 151.864 52 151.737 52H149.153C149.027 52 148.963 51.9367 148.963 51.81V46.661C148.963 46.0657 148.856 45.6287 148.64 45.35C148.438 45.0713 148.121 44.932 147.69 44.932C146.436 44.932 145.809 45.92 145.809 47.896V51.81C145.809 51.9367 145.746 52 145.619 52H143.035ZM154.242 52C154.116 52 154.052 51.9367 154.052 51.81V42.652C154.052 42.5253 154.116 42.462 154.242 42.462H156.826C156.953 42.462 157.016 42.5253 157.016 42.652V43.64C157.295 43.222 157.675 42.8927 158.156 42.652C158.638 42.3987 159.163 42.272 159.733 42.272C160.81 42.272 161.646 42.576 162.241 43.184C162.837 43.7793 163.134 44.6407 163.134 45.768V51.81C163.134 51.9367 163.071 52 162.944 52H160.36C160.234 52 160.17 51.9367 160.17 51.81V46.661C160.17 46.0657 160.063 45.6287 159.847 45.35C159.645 45.0713 159.328 44.932 158.897 44.932C157.643 44.932 157.016 45.92 157.016 47.896V51.81C157.016 51.9367 156.953 52 156.826 52H154.242ZM165.297 41.721C165.171 41.721 165.107 41.6577 165.107 41.531V38.89C165.107 38.7633 165.171 38.7 165.297 38.7H168.185C168.312 38.7 168.375 38.7633 168.375 38.89V41.531C168.375 41.6577 168.312 41.721 168.185 41.721H165.297ZM165.449 52C165.323 52 165.259 51.9367 165.259 51.81V42.652C165.259 42.5253 165.323 42.462 165.449 42.462H168.033C168.16 42.462 168.223 42.5253 168.223 42.652V51.81C168.223 51.9367 168.16 52 168.033 52H165.449ZM170.533 52C170.407 52 170.343 51.9367 170.343 51.81V42.652C170.343 42.5253 170.407 42.462 170.533 42.462H173.117C173.244 42.462 173.307 42.5253 173.307 42.652V43.64C173.586 43.222 173.966 42.8927 174.447 42.652C174.929 42.3987 175.454 42.272 176.024 42.272C177.101 42.272 177.937 42.576 178.532 43.184C179.128 43.7793 179.425 44.6407 179.425 45.768V51.81C179.425 51.9367 179.362 52 179.235 52H176.651C176.525 52 176.461 51.9367 176.461 51.81V46.661C176.461 46.0657 176.354 45.6287 176.138 45.35C175.936 45.0713 175.619 44.932 175.188 44.932C173.934 44.932 173.307 45.92 173.307 47.896V51.81C173.307 51.9367 173.244 52 173.117 52H170.533ZM186.015 55.952C184.749 55.952 183.716 55.6543 182.918 55.059C182.12 54.4763 181.658 53.672 181.531 52.646V52.608C181.531 52.494 181.595 52.437 181.721 52.437H184.248C184.312 52.437 184.356 52.4497 184.381 52.475C184.419 52.5003 184.451 52.551 184.476 52.627C184.704 53.197 185.217 53.482 186.015 53.482C186.611 53.482 187.067 53.292 187.383 52.912C187.7 52.5447 187.858 51.9367 187.858 51.088V50.803C187.592 51.1703 187.244 51.4427 186.813 51.62C186.383 51.7973 185.92 51.886 185.426 51.886C184.59 51.886 183.837 51.6897 183.165 51.297C182.507 50.8917 181.987 50.328 181.607 49.606C181.227 48.8713 181.037 48.029 181.037 47.079C181.037 46.129 181.221 45.293 181.588 44.571C181.968 43.8363 182.481 43.2727 183.127 42.88C183.773 42.4747 184.489 42.272 185.274 42.272C185.806 42.272 186.294 42.367 186.737 42.557C187.193 42.7343 187.567 43.0003 187.858 43.355V42.652C187.858 42.5253 187.922 42.462 188.048 42.462H190.632C190.759 42.462 190.822 42.5253 190.822 42.652V50.347C190.822 52.3483 190.411 53.7797 189.587 54.641C188.777 55.515 187.586 55.952 186.015 55.952ZM185.996 49.226C186.566 49.226 187.029 49.0297 187.383 48.637C187.738 48.2443 187.915 47.725 187.915 47.079C187.915 46.433 187.738 45.9137 187.383 45.521C187.029 45.1283 186.566 44.932 185.996 44.932C185.426 44.932 184.964 45.1283 184.609 45.521C184.255 45.9137 184.077 46.433 184.077 47.079C184.077 47.725 184.255 48.2443 184.609 48.637C184.964 49.0297 185.426 49.226 185.996 49.226Z" fill="black"/>
<path d="M46.1076 83V73.8536H47.2151V77.9266H52.0921V73.8536H53.1996V83H52.0921V78.9091H47.2151V83H46.1076ZM58.1502 83.1429C57.4892 83.1429 56.9191 82.997 56.4397 82.7052C55.9634 82.4105 55.5956 81.9996 55.3366 81.4726C55.0806 80.9427 54.9525 80.3263 54.9525 79.6237C54.9525 78.921 55.0806 78.3017 55.3366 77.7658C55.5956 77.2269 55.9559 76.8071 56.4174 76.5064C56.8819 76.2027 57.4237 76.0509 58.043 76.0509C58.4003 76.0509 58.7531 76.1104 59.1015 76.2295C59.4498 76.3486 59.7669 76.5421 60.0527 76.8101C60.3386 77.0751 60.5663 77.4264 60.736 77.8641C60.9058 78.3017 60.9906 78.8406 60.9906 79.4808V79.9274H55.7028V79.0163H59.9188C59.9188 78.6292 59.8414 78.2839 59.6865 77.9802C59.5347 77.6765 59.3173 77.4368 59.0345 77.2612C58.7546 77.0855 58.4241 76.9977 58.043 76.9977C57.6232 76.9977 57.26 77.1019 56.9533 77.3103C56.6496 77.5157 56.4159 77.7837 56.2522 78.1142C56.0884 78.4447 56.0065 78.799 56.0065 79.1771V79.7845C56.0065 80.3025 56.0958 80.7417 56.2745 81.1019C56.4561 81.4592 56.7077 81.7316 57.0292 81.9192C57.3508 82.1038 57.7245 82.1961 58.1502 82.1961C58.4271 82.1961 58.6772 82.1574 58.9005 82.08C59.1268 81.9996 59.3218 81.8805 59.4856 81.7227C59.6493 81.5619 59.7759 81.3625 59.8652 81.1243L60.8834 81.4101C60.7762 81.7555 60.5961 82.0592 60.343 82.3212C60.09 82.5802 59.7773 82.7827 59.4052 82.9285C59.033 83.0715 58.6147 83.1429 58.1502 83.1429ZM63.064 85.5724C62.8853 85.5724 62.726 85.5575 62.5861 85.5278C62.4462 85.501 62.3494 85.4742 62.2958 85.4474L62.5638 84.5184C62.8198 84.584 63.0461 84.6078 63.2426 84.5899C63.4391 84.572 63.6133 84.4842 63.7651 84.3264C63.92 84.1716 64.0614 83.92 64.1894 83.5717L64.3859 83.0357L61.8492 76.1402H62.9925L64.8861 81.6066H64.9576L66.8512 76.1402H67.9945L65.0826 84.0004C64.9516 84.3547 64.7893 84.648 64.5958 84.8802C64.4023 85.1154 64.1775 85.2896 63.9214 85.4027C63.6684 85.5159 63.3825 85.5724 63.064 85.5724Z" fill="#333333"/>
<path d="M197.537 82.7495L197.465 83.2318C197.415 83.5713 197.337 83.9345 197.233 84.3216C197.132 84.7086 197.026 85.0733 196.916 85.4157C196.806 85.7581 196.715 86.0306 196.643 86.233H195.84C195.878 86.0425 195.929 85.7909 195.991 85.4783C196.054 85.1656 196.117 84.8158 196.179 84.4287C196.245 84.0447 196.298 83.6516 196.34 83.2497L196.393 82.7495H197.537ZM204.581 84L202.491 77.1402H203.598L205.081 82.3922H205.152L206.617 77.1402H207.743L209.19 82.3744H209.261L210.744 77.1402H211.851L209.761 84H208.725L207.225 78.7301H207.117L205.617 84H204.581ZM215.888 84.1429C215.227 84.1429 214.656 83.997 214.177 83.7052C213.701 83.4105 213.333 82.9996 213.074 82.4726C212.818 81.9427 212.69 81.3263 212.69 80.6237C212.69 79.921 212.818 79.3017 213.074 78.7658C213.333 78.2269 213.693 77.8071 214.155 77.5064C214.619 77.2027 215.161 77.0509 215.78 77.0509C216.138 77.0509 216.491 77.1104 216.839 77.2295C217.187 77.3486 217.504 77.5421 217.79 77.8101C218.076 78.0751 218.304 78.4264 218.473 78.8641C218.643 79.3017 218.728 79.8406 218.728 80.4808V80.9274H213.44V80.0163H217.656C217.656 79.6292 217.579 79.2839 217.424 78.9802C217.272 78.6765 217.055 78.4368 216.772 78.2612C216.492 78.0855 216.162 77.9977 215.78 77.9977C215.361 77.9977 214.997 78.1019 214.691 78.3103C214.387 78.5157 214.153 78.7837 213.99 79.1142C213.826 79.4447 213.744 79.799 213.744 80.1771V80.7845C213.744 81.3025 213.833 81.7417 214.012 82.1019C214.193 82.4592 214.445 82.7316 214.767 82.9192C215.088 83.1038 215.462 83.1961 215.888 83.1961C216.165 83.1961 216.415 83.1574 216.638 83.08C216.864 82.9996 217.059 82.8805 217.223 82.7227C217.387 82.5619 217.513 82.3625 217.603 82.1243L218.621 82.4101C218.514 82.7555 218.334 83.0592 218.08 83.3212C217.827 83.5802 217.515 83.7827 217.143 83.9285C216.77 84.0715 216.352 84.1429 215.888 84.1429ZM221.26 74.8536V75.6575C221.26 75.9016 221.216 76.1621 221.126 76.439C221.04 76.7129 220.912 76.9794 220.742 77.2384C220.575 77.4945 220.373 77.7178 220.135 77.9083L219.563 77.4439C219.751 77.1759 219.913 76.8975 220.05 76.6087C220.19 76.3169 220.26 76.0058 220.26 75.6753V74.8536H221.26ZM222.382 84V77.1402H223.401V78.1763H223.472C223.597 77.8369 223.823 77.5615 224.151 77.3501C224.478 77.1387 224.848 77.033 225.258 77.033C225.336 77.033 225.433 77.0345 225.549 77.0375C225.665 77.0404 225.753 77.0449 225.812 77.0509V78.1227C225.777 78.1138 225.695 78.1004 225.567 78.0825C225.442 78.0617 225.309 78.0513 225.169 78.0513C224.836 78.0513 224.538 78.1212 224.276 78.2612C224.017 78.3981 223.811 78.5887 223.66 78.8328C223.511 79.074 223.436 79.3494 223.436 79.659V84H222.382ZM229.729 84.1429C229.068 84.1429 228.498 83.997 228.018 83.7052C227.542 83.4105 227.174 82.9996 226.915 82.4726C226.659 81.9427 226.531 81.3263 226.531 80.6237C226.531 79.921 226.659 79.3017 226.915 78.7658C227.174 78.2269 227.535 77.8071 227.996 77.5064C228.461 77.2027 229.002 77.0509 229.622 77.0509C229.979 77.0509 230.332 77.1104 230.68 77.2295C231.029 77.3486 231.346 77.5421 231.631 77.8101C231.917 78.0751 232.145 78.4264 232.315 78.8641C232.484 79.3017 232.569 79.8406 232.569 80.4808V80.9274H227.282V80.0163H231.497C231.497 79.6292 231.42 79.2839 231.265 78.9802C231.113 78.6765 230.896 78.4368 230.613 78.2612C230.333 78.0855 230.003 77.9977 229.622 77.9977C229.202 77.9977 228.839 78.1019 228.532 78.3103C228.228 78.5157 227.995 78.7837 227.831 79.1142C227.667 79.4447 227.585 79.799 227.585 80.1771V80.7845C227.585 81.3025 227.675 81.7417 227.853 82.1019C228.035 82.4592 228.286 82.7316 228.608 82.9192C228.93 83.1038 229.303 83.1961 229.729 83.1961C230.006 83.1961 230.256 83.1574 230.479 83.08C230.706 82.9996 230.901 82.8805 231.064 82.7227C231.228 82.5619 231.355 82.3625 231.444 82.1243L232.462 82.4101C232.355 82.7555 232.175 83.0592 231.922 83.3212C231.669 83.5802 231.356 83.7827 230.984 83.9285C230.612 84.0715 230.193 84.1429 229.729 84.1429ZM237.71 84V77.1402H238.728V78.1763H238.799C238.924 77.8369 239.151 77.5615 239.478 77.3501C239.806 77.1387 240.175 77.033 240.586 77.033C240.663 77.033 240.76 77.0345 240.876 77.0375C240.992 77.0404 241.08 77.0449 241.14 77.0509V78.1227C241.104 78.1138 241.022 78.1004 240.894 78.0825C240.769 78.0617 240.636 78.0513 240.497 78.0513C240.163 78.0513 239.865 78.1212 239.603 78.2612C239.344 78.3981 239.139 78.5887 238.987 78.8328C238.838 79.074 238.764 79.3494 238.764 79.659V84H237.71ZM242.389 84V77.1402H243.443V84H242.389ZM242.925 75.9969C242.719 75.9969 242.542 75.9269 242.393 75.787C242.248 75.647 242.175 75.4788 242.175 75.2823C242.175 75.0858 242.248 74.9176 242.393 74.7777C242.542 74.6377 242.719 74.5678 242.925 74.5678C243.13 74.5678 243.306 74.6377 243.452 74.7777C243.601 74.9176 243.675 75.0858 243.675 75.2823C243.675 75.4788 243.601 75.647 243.452 75.787C243.306 75.9269 243.13 75.9969 242.925 75.9969ZM248.142 86.7153C247.633 86.7153 247.196 86.6498 246.829 86.5188C246.463 86.3908 246.158 86.2211 245.914 86.0097C245.673 85.8013 245.481 85.578 245.338 85.3398L246.177 84.7503C246.273 84.8753 246.393 85.0183 246.539 85.179C246.685 85.3428 246.884 85.4842 247.138 85.6033C247.394 85.7254 247.729 85.7864 248.142 85.7864C248.696 85.7864 249.153 85.6524 249.513 85.3845C249.874 85.1165 250.054 84.6967 250.054 84.125V82.7316H249.965C249.887 82.8567 249.777 83.0115 249.634 83.1961C249.494 83.3777 249.292 83.54 249.027 83.6829C248.765 83.8228 248.41 83.8928 247.964 83.8928C247.41 83.8928 246.913 83.7618 246.472 83.4998C246.034 83.2378 245.688 82.8567 245.431 82.3565C245.178 81.8563 245.052 81.2489 245.052 80.5344C245.052 79.8317 245.175 79.2199 245.423 78.6988C245.67 78.1748 246.014 77.7699 246.454 77.4841C246.895 77.1953 247.404 77.0509 247.982 77.0509C248.428 77.0509 248.783 77.1253 249.045 77.2742C249.309 77.4201 249.512 77.5868 249.652 77.7744C249.795 77.959 249.905 78.1108 249.982 78.2299H250.09V77.1402H251.108V84.1965C251.108 84.786 250.974 85.2654 250.706 85.6346C250.441 86.0067 250.084 86.2792 249.634 86.4518C249.187 86.6275 248.69 86.7153 248.142 86.7153ZM248.107 82.946C248.529 82.946 248.887 82.8493 249.178 82.6557C249.47 82.4622 249.692 82.1838 249.844 81.8206C249.996 81.4573 250.072 81.0226 250.072 80.5165C250.072 80.0223 249.997 79.5861 249.848 79.208C249.7 78.8298 249.479 78.5336 249.187 78.3192C248.896 78.1048 248.535 77.9977 248.107 77.9977C247.66 77.9977 247.288 78.1108 246.99 78.3371C246.695 78.5634 246.474 78.867 246.325 79.2481C246.179 79.6292 246.106 80.052 246.106 80.5165C246.106 80.9929 246.18 81.4142 246.329 81.7804C246.481 82.1436 246.704 82.4294 246.999 82.6379C247.297 82.8433 247.666 82.946 248.107 82.946ZM254.091 79.8734V84H253.037V74.8536H254.091V78.212H254.18C254.341 77.8577 254.582 77.5764 254.904 77.3679C255.228 77.1566 255.66 77.0509 256.199 77.0509C256.667 77.0509 257.076 77.1446 257.427 77.3322C257.779 77.5168 258.051 77.8012 258.245 78.1852C258.441 78.5663 258.539 79.0516 258.539 79.6412V84H257.485V79.7126C257.485 79.1678 257.344 78.7465 257.061 78.4487C256.781 78.148 256.393 77.9977 255.895 77.9977C255.55 77.9977 255.24 78.0706 254.966 78.2165C254.696 78.3624 254.481 78.5753 254.323 78.8551C254.169 79.135 254.091 79.4744 254.091 79.8734ZM263.451 77.1402V78.0334H259.896V77.1402H263.451ZM260.932 75.4967H261.986V82.0349C261.986 82.3327 262.029 82.556 262.115 82.7049C262.205 82.8507 262.318 82.949 262.455 82.9996C262.595 83.0472 262.742 83.0711 262.897 83.0711C263.013 83.0711 263.108 83.0651 263.183 83.0532C263.257 83.0383 263.317 83.0264 263.361 83.0175L263.576 83.9643C263.504 83.9911 263.405 84.0179 263.277 84.0447C263.149 84.0744 262.986 84.0893 262.79 84.0893C262.492 84.0893 262.2 84.0253 261.914 83.8973C261.632 83.7693 261.396 83.5742 261.209 83.3122C261.024 83.0502 260.932 82.7197 260.932 82.3208V75.4967ZM271.36 84.1429C270.741 84.1429 270.197 83.9955 269.73 83.7008C269.266 83.406 268.902 82.9937 268.64 82.4637C268.381 81.9337 268.252 81.3144 268.252 80.6058C268.252 79.8913 268.381 79.2675 268.64 78.7346C268.902 78.2016 269.266 77.7878 269.73 77.493C270.197 77.1982 270.741 77.0509 271.36 77.0509C271.979 77.0509 272.521 77.1982 272.986 77.493C273.453 77.7878 273.816 78.2016 274.075 78.7346C274.337 79.2675 274.468 79.8913 274.468 80.6058C274.468 81.3144 274.337 81.9337 274.075 82.4637C273.816 82.9937 273.453 83.406 272.986 83.7008C272.521 83.9955 271.979 84.1429 271.36 84.1429ZM271.36 83.1961C271.831 83.1961 272.218 83.0755 272.521 82.8344C272.825 82.5932 273.05 82.2761 273.196 81.8831C273.342 81.4901 273.415 81.0643 273.415 80.6058C273.415 80.1473 273.342 79.7201 273.196 79.3241C273.05 78.9281 272.825 78.608 272.521 78.3639C272.218 78.1197 271.831 77.9977 271.36 77.9977C270.89 77.9977 270.503 78.1197 270.199 78.3639C269.895 78.608 269.67 78.9281 269.525 79.3241C269.379 79.7201 269.306 80.1473 269.306 80.6058C269.306 81.0643 269.379 81.4901 269.525 81.8831C269.67 82.2761 269.895 82.5932 270.199 82.8344C270.503 83.0755 270.89 83.1961 271.36 83.1961ZM277.131 79.8734V84H276.077V77.1402H277.096V78.212H277.185C277.346 77.8637 277.59 77.5838 277.917 77.3724C278.245 77.158 278.668 77.0509 279.186 77.0509C279.65 77.0509 280.057 77.1461 280.405 77.3367C280.753 77.5243 281.024 77.8101 281.218 78.1942C281.411 78.5753 281.508 79.0576 281.508 79.6412V84H280.454V79.7126C280.454 79.1737 280.314 78.7539 280.034 78.4532C279.754 78.1495 279.37 77.9977 278.882 77.9977C278.546 77.9977 278.245 78.0706 277.98 78.2165C277.718 78.3624 277.511 78.5753 277.359 78.8551C277.207 79.135 277.131 79.4744 277.131 79.8734ZM291.83 78.6765L290.883 78.9445C290.824 78.7867 290.736 78.6333 290.62 78.4845C290.507 78.3326 290.352 78.2076 290.155 78.1093C289.959 78.0111 289.707 77.9619 289.401 77.9619C288.981 77.9619 288.631 78.0587 288.351 78.2522C288.074 78.4428 287.936 78.6854 287.936 78.9802C287.936 79.2422 288.031 79.4491 288.222 79.601C288.412 79.7528 288.71 79.8793 289.115 79.9806L290.133 80.2307C290.746 80.3795 291.203 80.6073 291.504 80.914C291.805 81.2177 291.955 81.6092 291.955 82.0885C291.955 82.4816 291.842 82.8329 291.616 83.1425C291.392 83.4522 291.08 83.6963 290.678 83.875C290.276 84.0536 289.809 84.1429 289.276 84.1429C288.576 84.1429 287.997 83.9911 287.538 83.6874C287.08 83.3837 286.79 82.9401 286.667 82.3565L287.668 82.1064C287.763 82.4756 287.943 82.7525 288.208 82.9371C288.476 83.1217 288.826 83.214 289.258 83.214C289.749 83.214 290.139 83.1098 290.428 82.9014C290.72 82.69 290.865 82.4369 290.865 82.1421C290.865 81.9039 290.782 81.7045 290.615 81.5437C290.449 81.3799 290.193 81.2579 289.847 81.1775L288.704 80.9095C288.076 80.7606 287.614 80.5299 287.319 80.2173C287.028 79.9017 286.882 79.5072 286.882 79.0338C286.882 78.6467 286.99 78.3043 287.208 78.0066C287.428 77.7089 287.727 77.4751 288.105 77.3054C288.487 77.1357 288.918 77.0509 289.401 77.0509C290.079 77.0509 290.612 77.1997 290.999 77.4975C291.39 77.7952 291.666 78.1882 291.83 78.6765ZM296.329 84.1429C295.685 84.1429 295.132 83.9911 294.667 83.6874C294.203 83.3837 293.845 82.9654 293.595 82.4324C293.345 81.8995 293.22 81.2906 293.22 80.6058C293.22 79.9091 293.348 79.2943 293.604 78.7614C293.863 78.2254 294.224 77.8071 294.685 77.5064C295.15 77.2027 295.691 77.0509 296.311 77.0509C296.793 77.0509 297.228 77.1402 297.615 77.3188C298.002 77.4975 298.319 77.7476 298.566 78.0691C298.813 78.3907 298.967 78.7658 299.026 79.1946H297.972C297.892 78.8819 297.713 78.605 297.436 78.3639C297.162 78.1197 296.793 77.9977 296.329 77.9977C295.918 77.9977 295.557 78.1048 295.248 78.3192C294.941 78.5306 294.701 78.8298 294.529 79.2169C294.359 79.601 294.274 80.052 294.274 80.5701C294.274 81.1001 294.358 81.5615 294.524 81.9546C294.694 82.3476 294.932 82.6527 295.239 82.8701C295.549 83.0874 295.912 83.1961 296.329 83.1961C296.602 83.1961 296.851 83.1485 297.074 83.0532C297.298 82.9579 297.487 82.821 297.642 82.6423C297.796 82.4637 297.907 82.2493 297.972 81.9992H299.026C298.967 82.4041 298.819 82.7689 298.584 83.0934C298.352 83.415 298.044 83.671 297.659 83.8616C297.278 84.0491 296.835 84.1429 296.329 84.1429ZM301.621 79.8734V84H300.567V74.8536H301.621V78.212H301.71C301.871 77.8577 302.112 77.5764 302.434 77.3679C302.758 77.1566 303.19 77.0509 303.729 77.0509C304.196 77.0509 304.606 77.1446 304.957 77.3322C305.308 77.5168 305.581 77.8012 305.774 78.1852C305.971 78.5663 306.069 79.0516 306.069 79.6412V84H305.015V79.7126C305.015 79.1678 304.874 78.7465 304.591 78.4487C304.311 78.148 303.922 77.9977 303.425 77.9977C303.08 77.9977 302.77 78.0706 302.496 78.2165C302.225 78.3624 302.011 78.5753 301.853 78.8551C301.698 79.135 301.621 79.4744 301.621 79.8734ZM310.873 84.1429C310.212 84.1429 309.642 83.997 309.163 83.7052C308.686 83.4105 308.319 82.9996 308.06 82.4726C307.804 81.9427 307.676 81.3263 307.676 80.6237C307.676 79.921 307.804 79.3017 308.06 78.7658C308.319 78.2269 308.679 77.8071 309.14 77.5064C309.605 77.2027 310.147 77.0509 310.766 77.0509C311.123 77.0509 311.476 77.1104 311.825 77.2295C312.173 77.3486 312.49 77.5421 312.776 77.8101C313.062 78.0751 313.289 78.4264 313.459 78.8641C313.629 79.3017 313.714 79.8406 313.714 80.4808V80.9274H308.426V80.0163H312.642C312.642 79.6292 312.564 79.2839 312.41 78.9802C312.258 78.6765 312.04 78.4368 311.758 78.2612C311.478 78.0855 311.147 77.9977 310.766 77.9977C310.346 77.9977 309.983 78.1019 309.676 78.3103C309.373 78.5157 309.139 78.7837 308.975 79.1142C308.811 79.4447 308.73 79.799 308.73 80.1771V80.7845C308.73 81.3025 308.819 81.7417 308.998 82.1019C309.179 82.4592 309.431 82.7316 309.752 82.9192C310.074 83.1038 310.448 83.1961 310.873 83.1961C311.15 83.1961 311.4 83.1574 311.624 83.08C311.85 82.9996 312.045 82.8805 312.209 82.7227C312.372 82.5619 312.499 82.3625 312.588 82.1243L313.607 82.4101C313.499 82.7555 313.319 83.0592 313.066 83.3212C312.813 83.5802 312.5 83.7827 312.128 83.9285C311.756 84.0715 311.338 84.1429 310.873 84.1429ZM317.907 84.1429C317.336 84.1429 316.831 83.9985 316.393 83.7097C315.956 83.4179 315.613 83.0071 315.366 82.4771C315.119 81.9441 314.995 81.3144 314.995 80.588C314.995 79.8674 315.119 79.2422 315.366 78.7122C315.613 78.1823 315.957 77.7729 316.398 77.4841C316.838 77.1953 317.348 77.0509 317.925 77.0509C318.372 77.0509 318.725 77.1253 318.984 77.2742C319.246 77.4201 319.445 77.5868 319.582 77.7744C319.722 77.959 319.831 78.1108 319.908 78.2299H319.997V74.8536H321.051V84H320.033V82.946H319.908C319.831 83.0711 319.721 83.2289 319.578 83.4194C319.435 83.607 319.231 83.7752 318.966 83.9241C318.701 84.07 318.348 84.1429 317.907 84.1429ZM318.05 83.1961C318.473 83.1961 318.83 83.086 319.122 82.8656C319.414 82.6423 319.636 82.3342 319.787 81.9412C319.939 81.5452 320.015 81.0882 320.015 80.5701C320.015 80.058 319.941 79.6099 319.792 79.2258C319.643 78.8388 319.423 78.538 319.131 78.3237C318.839 78.1063 318.479 77.9977 318.05 77.9977C317.604 77.9977 317.231 78.1123 316.934 78.3415C316.639 78.5678 316.417 78.876 316.268 79.266C316.122 79.6531 316.049 80.0878 316.049 80.5701C316.049 81.0584 316.124 81.502 316.273 81.901C316.425 82.297 316.648 82.6126 316.943 82.8478C317.24 83.08 317.61 83.1961 318.05 83.1961ZM327.451 81.1953V77.1402H328.505V84H327.451V82.8388H327.38C327.219 83.1872 326.969 83.4834 326.629 83.7276C326.29 83.9687 325.861 84.0893 325.343 84.0893C324.914 84.0893 324.533 83.9955 324.2 83.808C323.866 83.6174 323.604 83.3316 323.414 82.9505C323.223 82.5664 323.128 82.0826 323.128 81.499V77.1402H324.182V81.4276C324.182 81.9278 324.322 82.3267 324.602 82.6245C324.885 82.9222 325.245 83.0711 325.683 83.0711C325.945 83.0711 326.211 83.0041 326.482 82.8701C326.756 82.7361 326.985 82.5307 327.17 82.2538C327.357 81.9769 327.451 81.6241 327.451 81.1953ZM331.49 74.8536V84H330.436V74.8536H331.49ZM336.296 84.1429C335.635 84.1429 335.065 83.997 334.586 83.7052C334.109 83.4105 333.742 82.9996 333.483 82.4726C333.227 81.9427 333.098 81.3263 333.098 80.6237C333.098 79.921 333.227 79.3017 333.483 78.7658C333.742 78.2269 334.102 77.8071 334.563 77.5064C335.028 77.2027 335.57 77.0509 336.189 77.0509C336.546 77.0509 336.899 77.1104 337.247 77.2295C337.596 77.3486 337.913 77.5421 338.199 77.8101C338.485 78.0751 338.712 78.4264 338.882 78.8641C339.052 79.3017 339.137 79.8406 339.137 80.4808V80.9274H333.849V80.0163H338.065C338.065 79.6292 337.987 79.2839 337.832 78.9802C337.681 78.6765 337.463 78.4368 337.18 78.2612C336.901 78.0855 336.57 77.9977 336.189 77.9977C335.769 77.9977 335.406 78.1019 335.099 78.3103C334.796 78.5157 334.562 78.7837 334.398 79.1142C334.234 79.4447 334.152 79.799 334.152 80.1771V80.7845C334.152 81.3025 334.242 81.7417 334.42 82.1019C334.602 82.4592 334.854 82.7316 335.175 82.9192C335.497 83.1038 335.87 83.1961 336.296 83.1961C336.573 83.1961 336.823 83.1574 337.046 83.08C337.273 82.9996 337.468 82.8805 337.632 82.7227C337.795 82.5619 337.922 82.3625 338.011 82.1243L339.029 82.4101C338.922 82.7555 338.742 83.0592 338.489 83.3212C338.236 83.5802 337.923 83.7827 337.551 83.9285C337.179 84.0715 336.761 84.1429 336.296 84.1429ZM347.26 77.1402V78.0334H343.705V77.1402H347.26ZM344.741 75.4967H345.795V82.0349C345.795 82.3327 345.839 82.556 345.925 82.7049C346.014 82.8507 346.127 82.949 346.264 82.9996C346.404 83.0472 346.552 83.0711 346.706 83.0711C346.823 83.0711 346.918 83.0651 346.992 83.0532C347.067 83.0383 347.126 83.0264 347.171 83.0175L347.385 83.9643C347.314 83.9911 347.214 84.0179 347.086 84.0447C346.958 84.0744 346.796 84.0893 346.599 84.0893C346.302 84.0893 346.01 84.0253 345.724 83.8973C345.441 83.7693 345.206 83.5742 345.018 83.3122C344.834 83.0502 344.741 82.7197 344.741 82.3208V75.4967ZM351.559 84.1429C350.94 84.1429 350.396 83.9955 349.929 83.7008C349.464 83.406 349.101 82.9937 348.839 82.4637C348.58 81.9337 348.45 81.3144 348.45 80.6058C348.45 79.8913 348.58 79.2675 348.839 78.7346C349.101 78.2016 349.464 77.7878 349.929 77.493C350.396 77.1982 350.94 77.0509 351.559 77.0509C352.178 77.0509 352.72 77.1982 353.184 77.493C353.652 77.7878 354.015 78.2016 354.274 78.7346C354.536 79.2675 354.667 79.8913 354.667 80.6058C354.667 81.3144 354.536 81.9337 354.274 82.4637C354.015 82.9937 353.652 83.406 353.184 83.7008C352.72 83.9955 352.178 84.1429 351.559 84.1429ZM351.559 83.1961C352.029 83.1961 352.416 83.0755 352.72 82.8344C353.024 82.5932 353.248 82.2761 353.394 81.8831C353.54 81.4901 353.613 81.0643 353.613 80.6058C353.613 80.1473 353.54 79.7201 353.394 79.3241C353.248 78.9281 353.024 78.608 352.72 78.3639C352.416 78.1197 352.029 77.9977 351.559 77.9977C351.088 77.9977 350.701 78.1197 350.398 78.3639C350.094 78.608 349.869 78.9281 349.723 79.3241C349.577 79.7201 349.504 80.1473 349.504 80.6058C349.504 81.0643 349.577 81.4901 349.723 81.8831C349.869 82.2761 350.094 82.5932 350.398 82.8344C350.701 83.0755 351.088 83.1961 351.559 83.1961Z" fill="#333333"/>
<path d="M47.0186 97.8536V107H45.9647V97.8536H47.0186ZM50.9677 107.161C50.533 107.161 50.1385 107.079 49.7842 106.915C49.4299 106.748 49.1486 106.509 48.9402 106.196C48.7317 105.881 48.6275 105.499 48.6275 105.053C48.6275 104.66 48.7049 104.341 48.8598 104.097C49.0146 103.85 49.2215 103.656 49.4805 103.516C49.7396 103.377 50.0254 103.272 50.338 103.204C50.6536 103.132 50.9707 103.076 51.2893 103.034C51.7061 102.981 52.044 102.94 52.3031 102.914C52.5651 102.884 52.7556 102.835 52.8747 102.766C52.9968 102.698 53.0578 102.579 53.0578 102.409V102.373C53.0578 101.933 52.9372 101.59 52.6961 101.346C52.4579 101.102 52.0961 100.98 51.6108 100.98C51.1077 100.98 50.7132 101.09 50.4273 101.31C50.1415 101.531 49.9405 101.766 49.8244 102.016L48.824 101.659C49.0027 101.242 49.2409 100.917 49.5386 100.685C49.8393 100.45 50.1668 100.286 50.5211 100.194C50.8784 100.098 51.2297 100.051 51.5751 100.051C51.7954 100.051 52.0485 100.078 52.3343 100.131C52.6231 100.182 52.9015 100.288 53.1695 100.448C53.4404 100.609 53.6652 100.852 53.8438 101.176C54.0225 101.501 54.1118 101.936 54.1118 102.48V107H53.0578V106.071H53.0042C52.9328 106.22 52.8137 106.379 52.647 106.549C52.4802 106.719 52.2584 106.863 51.9815 106.982C51.7046 107.101 51.3667 107.161 50.9677 107.161ZM51.1285 106.214C51.5453 106.214 51.8967 106.132 52.1825 105.968C52.4713 105.805 52.6886 105.593 52.8345 105.334C52.9834 105.075 53.0578 104.803 53.0578 104.517V103.552C53.0132 103.606 52.9149 103.655 52.7631 103.7C52.6142 103.741 52.4415 103.779 52.245 103.811C52.0515 103.841 51.8624 103.868 51.6778 103.892C51.4962 103.912 51.3488 103.93 51.2357 103.945C50.9618 103.981 50.7057 104.039 50.4675 104.119C50.2323 104.197 50.0418 104.314 49.8959 104.472C49.753 104.627 49.6815 104.838 49.6815 105.106C49.6815 105.473 49.817 105.75 50.0879 105.937C50.3618 106.122 50.7087 106.214 51.1285 106.214ZM60.3587 104.195V100.14H61.4126V107H60.3587V105.839H60.2872C60.1264 106.187 59.8763 106.483 59.5369 106.728C59.1975 106.969 58.7688 107.089 58.2507 107.089C57.822 107.089 57.4409 106.996 57.1074 106.808C56.7739 106.617 56.5119 106.332 56.3214 105.95C56.1308 105.566 56.0356 105.083 56.0356 104.499V100.14H57.0895V104.428C57.0895 104.928 57.2295 105.327 57.5093 105.624C57.7922 105.922 58.1524 106.071 58.5901 106.071C58.8521 106.071 59.1186 106.004 59.3895 105.87C59.6635 105.736 59.8927 105.531 60.0773 105.254C60.2649 104.977 60.3587 104.624 60.3587 104.195ZM64.3971 102.873V107H63.3431V100.14H64.3613V101.212H64.4507C64.6114 100.864 64.8556 100.584 65.1831 100.372C65.5106 100.158 65.9334 100.051 66.4514 100.051C66.9159 100.051 67.3223 100.146 67.6707 100.337C68.019 100.524 68.29 100.81 68.4835 101.194C68.677 101.575 68.7738 102.058 68.7738 102.641V107H67.7198V102.713C67.7198 102.174 67.5799 101.754 67.3 101.453C67.0201 101.15 66.636 100.998 66.1478 100.998C65.8113 100.998 65.5106 101.071 65.2456 101.216C64.9836 101.362 64.7767 101.575 64.6248 101.855C64.473 102.135 64.3971 102.474 64.3971 102.873ZM73.4866 107.143C72.8434 107.143 72.2897 106.991 71.8252 106.687C71.3607 106.384 71.0034 105.965 70.7533 105.432C70.5032 104.899 70.3782 104.291 70.3782 103.606C70.3782 102.909 70.5062 102.294 70.7623 101.761C71.0213 101.225 71.3816 100.807 71.8431 100.506C72.3075 100.203 72.8494 100.051 73.4687 100.051C73.951 100.051 74.3857 100.14 74.7728 100.319C75.1598 100.497 75.4769 100.748 75.724 101.069C75.9712 101.391 76.1245 101.766 76.184 102.195H75.1301C75.0497 101.882 74.871 101.605 74.5941 101.364C74.3202 101.12 73.951 100.998 73.4866 100.998C73.0757 100.998 72.7154 101.105 72.4058 101.319C72.0991 101.531 71.8594 101.83 71.6867 102.217C71.517 102.601 71.4322 103.052 71.4322 103.57C71.4322 104.1 71.5155 104.562 71.6823 104.955C71.852 105.348 72.0902 105.653 72.3968 105.87C72.7065 106.087 73.0697 106.196 73.4866 106.196C73.7605 106.196 74.0091 106.148 74.2324 106.053C74.4557 105.958 74.6447 105.821 74.7996 105.642C74.9544 105.464 75.0645 105.249 75.1301 104.999H76.184C76.1245 105.404 75.9771 105.769 75.7419 106.093C75.5097 106.415 75.2015 106.671 74.8174 106.862C74.4363 107.049 73.9927 107.143 73.4866 107.143ZM78.7788 102.873V107H77.7248V97.8536H78.7788V101.212H78.8681C79.0289 100.858 79.2701 100.576 79.5916 100.368C79.9161 100.157 80.3479 100.051 80.8868 100.051C81.3542 100.051 81.7636 100.145 82.1149 100.332C82.4662 100.517 82.7387 100.801 82.9322 101.185C83.1287 101.566 83.227 102.052 83.227 102.641V107H82.173V102.713C82.173 102.168 82.0316 101.746 81.7487 101.449C81.4688 101.148 81.0803 100.998 80.5831 100.998C80.2377 100.998 79.9281 101.071 79.6541 101.216C79.3832 101.362 79.1688 101.575 79.011 101.855C78.8562 102.135 78.7788 102.474 78.7788 102.873ZM89.7462 102.873V107H88.6923V100.14H89.7105V101.212H89.7998C89.9606 100.864 90.2048 100.584 90.5323 100.372C90.8598 100.158 91.2826 100.051 91.8006 100.051C92.2651 100.051 92.6715 100.146 93.0198 100.337C93.3682 100.524 93.6391 100.81 93.8327 101.194C94.0262 101.575 94.1229 102.058 94.1229 102.641V107H93.069V102.713C93.069 102.174 92.929 101.754 92.6492 101.453C92.3693 101.15 91.9852 100.998 91.4969 100.998C91.1605 100.998 90.8598 101.071 90.5948 101.216C90.3328 101.362 90.1259 101.575 89.974 101.855C89.8222 102.135 89.7462 102.474 89.7462 102.873ZM98.925 107.143C98.2641 107.143 97.6939 106.997 97.2146 106.705C96.7382 106.41 96.3705 106 96.1114 105.473C95.8554 104.943 95.7274 104.326 95.7274 103.624C95.7274 102.921 95.8554 102.302 96.1114 101.766C96.3705 101.227 96.7307 100.807 97.1922 100.506C97.6567 100.203 98.1986 100.051 98.8179 100.051C99.1751 100.051 99.528 100.11 99.8763 100.23C100.225 100.349 100.542 100.542 100.828 100.81C101.113 101.075 101.341 101.426 101.511 101.864C101.681 102.302 101.765 102.841 101.765 103.481V103.927H96.4777V103.016H100.694C100.694 102.629 100.616 102.284 100.461 101.98C100.31 101.676 100.092 101.437 99.8093 101.261C99.5294 101.085 99.199 100.998 98.8179 100.998C98.3981 100.998 98.0348 101.102 97.7281 101.31C97.4245 101.516 97.1907 101.784 97.027 102.114C96.8632 102.445 96.7813 102.799 96.7813 103.177V103.784C96.7813 104.303 96.8707 104.742 97.0493 105.102C97.2309 105.459 97.4825 105.732 97.8041 105.919C98.1256 106.104 98.4993 106.196 98.925 106.196C99.2019 106.196 99.452 106.157 99.6753 106.08C99.9016 106 100.097 105.881 100.26 105.723C100.424 105.562 100.551 105.362 100.64 105.124L101.658 105.41C101.551 105.755 101.371 106.059 101.118 106.321C100.865 106.58 100.552 106.783 100.18 106.929C99.8078 107.071 99.3895 107.143 98.925 107.143ZM103.971 100.14L105.614 102.945L107.258 100.14H108.472L106.257 103.57L108.472 107H107.258L105.614 104.338L103.971 107H102.756L104.935 103.57L102.756 100.14H103.971ZM112.96 100.14V101.033H109.405V100.14H112.96ZM110.441 98.4967H111.495V105.035C111.495 105.333 111.538 105.556 111.624 105.705C111.714 105.851 111.827 105.949 111.964 106C112.104 106.047 112.251 106.071 112.406 106.071C112.522 106.071 112.617 106.065 112.692 106.053C112.766 106.038 112.826 106.026 112.87 106.017L113.085 106.964C113.013 106.991 112.913 107.018 112.785 107.045C112.657 107.074 112.495 107.089 112.299 107.089C112.001 107.089 111.709 107.025 111.423 106.897C111.14 106.769 110.905 106.574 110.718 106.312C110.533 106.05 110.441 105.72 110.441 105.321V98.4967ZM119.636 107L117.546 100.14H118.654L120.136 105.392H120.208L121.673 100.14H122.798L124.245 105.374H124.317L125.799 100.14H126.907L124.817 107H123.781L122.28 101.73H122.173L120.672 107H119.636ZM130.943 107.143C130.282 107.143 129.712 106.997 129.233 106.705C128.756 106.41 128.389 106 128.13 105.473C127.873 104.943 127.745 104.326 127.745 103.624C127.745 102.921 127.873 102.302 128.13 101.766C128.389 101.227 128.749 100.807 129.21 100.506C129.675 100.203 130.217 100.051 130.836 100.051C131.193 100.051 131.546 100.11 131.894 100.23C132.243 100.349 132.56 100.542 132.846 100.81C133.131 101.075 133.359 101.426 133.529 101.864C133.699 102.302 133.784 102.841 133.784 103.481V103.927H128.496V103.016H132.712C132.712 102.629 132.634 102.284 132.479 101.98C132.328 101.676 132.11 101.437 131.827 101.261C131.548 101.085 131.217 100.998 130.836 100.998C130.416 100.998 130.053 101.102 129.746 101.31C129.443 101.516 129.209 101.784 129.045 102.114C128.881 102.445 128.799 102.799 128.799 103.177V103.784C128.799 104.303 128.889 104.742 129.067 105.102C129.249 105.459 129.501 105.732 129.822 105.919C130.144 106.104 130.517 106.196 130.943 106.196C131.22 106.196 131.47 106.157 131.693 106.08C131.92 106 132.115 105.881 132.278 105.723C132.442 105.562 132.569 105.362 132.658 105.124L133.676 105.41C133.569 105.755 133.389 106.059 133.136 106.321C132.883 106.58 132.57 106.783 132.198 106.929C131.826 107.071 131.408 107.143 130.943 107.143ZM138.263 107.143C137.602 107.143 137.032 106.997 136.552 106.705C136.076 106.41 135.708 106 135.449 105.473C135.193 104.943 135.065 104.326 135.065 103.624C135.065 102.921 135.193 102.302 135.449 101.766C135.708 101.227 136.069 100.807 136.53 100.506C136.995 100.203 137.536 100.051 138.156 100.051C138.513 100.051 138.866 100.11 139.214 100.23C139.563 100.349 139.88 100.542 140.165 100.81C140.451 101.075 140.679 101.426 140.849 101.864C141.018 102.302 141.103 102.841 141.103 103.481V103.927H135.816V103.016H140.031C140.031 102.629 139.954 102.284 139.799 101.98C139.647 101.676 139.43 101.437 139.147 101.261C138.867 101.085 138.537 100.998 138.156 100.998C137.736 100.998 137.373 101.102 137.066 101.31C136.762 101.516 136.529 101.784 136.365 102.114C136.201 102.445 136.119 102.799 136.119 103.177V103.784C136.119 104.303 136.209 104.742 136.387 105.102C136.569 105.459 136.82 105.732 137.142 105.919C137.464 106.104 137.837 106.196 138.263 106.196C138.54 106.196 138.79 106.157 139.013 106.08C139.239 106 139.435 105.881 139.598 105.723C139.762 105.562 139.889 105.362 139.978 105.124L140.996 105.41C140.889 105.755 140.709 106.059 140.456 106.321C140.203 106.58 139.89 106.783 139.518 106.929C139.146 107.071 138.727 107.143 138.263 107.143ZM143.689 104.499L143.671 103.195H143.886L146.887 100.14H148.191L144.993 103.374H144.904L143.689 104.499ZM142.707 107V97.8536H143.761V107H142.707ZM147.065 107L144.386 103.606L145.136 102.873L148.405 107H147.065ZM150.941 97.8536L150.852 104.428H149.815L149.726 97.8536H150.941ZM150.333 107.071C150.113 107.071 149.924 106.993 149.766 106.835C149.608 106.677 149.53 106.488 149.53 106.268C149.53 106.047 149.608 105.858 149.766 105.7C149.924 105.543 150.113 105.464 150.333 105.464C150.554 105.464 150.743 105.543 150.901 105.7C151.058 105.858 151.137 106.047 151.137 106.268C151.137 106.413 151.1 106.547 151.026 106.67C150.954 106.792 150.857 106.89 150.735 106.964C150.616 107.036 150.482 107.071 150.333 107.071Z" fill="#333333"/>
<path d="M159.215 97.8536V107H158.108V97.8536H159.215ZM166.384 107L164.294 100.14H165.402L166.884 105.392H166.956L168.421 100.14H169.546L170.993 105.374H171.065L172.547 100.14H173.655L171.565 107H170.529L169.028 101.73H168.921L167.42 107H166.384ZM175.048 107V100.14H176.102V107H175.048ZM175.584 98.9969C175.379 98.9969 175.202 98.9269 175.053 98.787C174.907 98.647 174.834 98.4788 174.834 98.2823C174.834 98.0858 174.907 97.9176 175.053 97.7777C175.202 97.6377 175.379 97.5678 175.584 97.5678C175.79 97.5678 175.965 97.6377 176.111 97.7777C176.26 97.9176 176.335 98.0858 176.335 98.2823C176.335 98.4788 176.26 98.647 176.111 98.787C175.965 98.9269 175.79 98.9969 175.584 98.9969ZM179.087 97.8536V107H178.033V97.8536H179.087ZM182.071 97.8536V107H181.017V97.8536H182.071ZM188.593 97.8536V107H187.539V97.8536H188.593ZM193.399 107.143C192.738 107.143 192.168 106.997 191.689 106.705C191.212 106.41 190.845 106 190.586 105.473C190.33 104.943 190.202 104.326 190.202 103.624C190.202 102.921 190.33 102.302 190.586 101.766C190.845 101.227 191.205 100.807 191.666 100.506C192.131 100.203 192.673 100.051 193.292 100.051C193.649 100.051 194.002 100.11 194.35 100.23C194.699 100.349 195.016 100.542 195.302 100.81C195.588 101.075 195.815 101.426 195.985 101.864C196.155 102.302 196.24 102.841 196.24 103.481V103.927H190.952V103.016H195.168C195.168 102.629 195.09 102.284 194.936 101.98C194.784 101.676 194.566 101.437 194.284 101.261C194.004 101.085 193.673 100.998 193.292 100.998C192.872 100.998 192.509 101.102 192.202 101.31C191.899 101.516 191.665 101.784 191.501 102.114C191.337 102.445 191.256 102.799 191.256 103.177V103.784C191.256 104.303 191.345 104.742 191.524 105.102C191.705 105.459 191.957 105.732 192.278 105.919C192.6 106.104 192.973 106.196 193.399 106.196C193.676 106.196 193.926 106.157 194.15 106.08C194.376 106 194.571 105.881 194.735 105.723C194.898 105.562 195.025 105.362 195.114 105.124L196.132 105.41C196.025 105.755 195.845 106.059 195.592 106.321C195.339 106.58 195.026 106.783 194.654 106.929C194.282 107.071 193.864 107.143 193.399 107.143ZM200.826 100.14V101.033H197.271V100.14H200.826ZM198.307 98.4967H199.361V105.035C199.361 105.333 199.405 105.556 199.491 105.705C199.58 105.851 199.693 105.949 199.83 106C199.97 106.047 200.118 106.071 200.272 106.071C200.389 106.071 200.484 106.065 200.558 106.053C200.633 106.038 200.692 106.026 200.737 106.017L200.951 106.964C200.88 106.991 200.78 107.018 200.652 107.045C200.524 107.074 200.362 107.089 200.165 107.089C199.868 107.089 199.576 107.025 199.29 106.897C199.007 106.769 198.772 106.574 198.584 106.312C198.4 106.05 198.307 105.72 198.307 105.321V98.4967ZM206.628 109.572C206.449 109.572 206.29 109.558 206.15 109.528C206.01 109.501 205.913 109.474 205.859 109.447L206.127 108.518C206.383 108.584 206.61 108.608 206.806 108.59C207.003 108.572 207.177 108.484 207.329 108.326C207.484 108.172 207.625 107.92 207.753 107.572L207.95 107.036L205.413 100.14H206.556L208.45 105.607H208.521L210.415 100.14H211.558L208.646 108C208.515 108.355 208.353 108.648 208.159 108.88C207.966 109.115 207.741 109.29 207.485 109.403C207.232 109.516 206.946 109.572 206.628 109.572ZM215.49 107.143C214.871 107.143 214.328 106.996 213.86 106.701C213.396 106.406 213.033 105.994 212.771 105.464C212.512 104.934 212.382 104.314 212.382 103.606C212.382 102.891 212.512 102.267 212.771 101.735C213.033 101.202 213.396 100.788 213.86 100.493C214.328 100.198 214.871 100.051 215.49 100.051C216.11 100.051 216.652 100.198 217.116 100.493C217.584 100.788 217.947 101.202 218.206 101.735C218.468 102.267 218.599 102.891 218.599 103.606C218.599 104.314 218.468 104.934 218.206 105.464C217.947 105.994 217.584 106.406 217.116 106.701C216.652 106.996 216.11 107.143 215.49 107.143ZM215.49 106.196C215.961 106.196 216.348 106.076 216.652 105.834C216.955 105.593 217.18 105.276 217.326 104.883C217.472 104.49 217.545 104.064 217.545 103.606C217.545 103.147 217.472 102.72 217.326 102.324C217.18 101.928 216.955 101.608 216.652 101.364C216.348 101.12 215.961 100.998 215.49 100.998C215.02 100.998 214.633 101.12 214.329 101.364C214.026 101.608 213.801 101.928 213.655 102.324C213.509 102.72 213.436 103.147 213.436 103.606C213.436 104.064 213.509 104.49 213.655 104.883C213.801 105.276 214.026 105.593 214.329 105.834C214.633 106.076 215.02 106.196 215.49 106.196ZM224.531 104.195V100.14H225.585V107H224.531V105.839H224.459C224.299 106.187 224.048 106.483 223.709 106.728C223.37 106.969 222.941 107.089 222.423 107.089C221.994 107.089 221.613 106.996 221.28 106.808C220.946 106.617 220.684 106.332 220.494 105.95C220.303 105.566 220.208 105.083 220.208 104.499V100.14H221.262V104.428C221.262 104.928 221.402 105.327 221.681 105.624C221.964 105.922 222.325 106.071 222.762 106.071C223.024 106.071 223.291 106.004 223.562 105.87C223.836 105.736 224.065 105.531 224.249 105.254C224.437 104.977 224.531 104.624 224.531 104.195ZM232.035 104.499L232.017 103.195H232.231L235.233 100.14H236.537L233.339 103.374H233.25L232.035 104.499ZM231.052 107V97.8536H232.106V107H231.052ZM235.411 107L232.732 103.606L233.482 102.873L236.751 107H235.411ZM238.947 102.873V107H237.893V100.14H238.911V101.212H239.001C239.161 100.864 239.406 100.584 239.733 100.372C240.061 100.158 240.483 100.051 241.001 100.051C241.466 100.051 241.872 100.146 242.221 100.337C242.569 100.524 242.84 100.81 243.034 101.194C243.227 101.575 243.324 102.058 243.324 102.641V107H242.27V102.713C242.27 102.174 242.13 101.754 241.85 101.453C241.57 101.15 241.186 100.998 240.698 100.998C240.361 100.998 240.061 101.071 239.796 101.216C239.534 101.362 239.327 101.575 239.175 101.855C239.023 102.135 238.947 102.474 238.947 102.873ZM248.037 107.143C247.417 107.143 246.874 106.996 246.407 106.701C245.942 106.406 245.579 105.994 245.317 105.464C245.058 104.934 244.928 104.314 244.928 103.606C244.928 102.891 245.058 102.267 245.317 101.735C245.579 101.202 245.942 100.788 246.407 100.493C246.874 100.198 247.417 100.051 248.037 100.051C248.656 100.051 249.198 100.198 249.662 100.493C250.13 100.788 250.493 101.202 250.752 101.735C251.014 102.267 251.145 102.891 251.145 103.606C251.145 104.314 251.014 104.934 250.752 105.464C250.493 105.994 250.13 106.406 249.662 106.701C249.198 106.996 248.656 107.143 248.037 107.143ZM248.037 106.196C248.507 106.196 248.894 106.076 249.198 105.834C249.501 105.593 249.726 105.276 249.872 104.883C250.018 104.49 250.091 104.064 250.091 103.606C250.091 103.147 250.018 102.72 249.872 102.324C249.726 101.928 249.501 101.608 249.198 101.364C248.894 101.12 248.507 100.998 248.037 100.998C247.566 100.998 247.179 101.12 246.875 101.364C246.572 101.608 246.347 101.928 246.201 102.324C246.055 102.72 245.982 103.147 245.982 103.606C245.982 104.064 246.055 104.49 246.201 104.883C246.347 105.276 246.572 105.593 246.875 105.834C247.179 106.076 247.566 106.196 248.037 106.196ZM254.075 107L251.985 100.14H253.092L254.575 105.392H254.646L256.111 100.14H257.237L258.684 105.374H258.755L260.238 100.14H261.345L259.255 107H258.219L256.719 101.73H256.611L255.111 107H254.075ZM266.276 107V100.14H267.33V107H266.276ZM266.812 98.9969C266.606 98.9969 266.429 98.9269 266.28 98.787C266.134 98.647 266.061 98.4788 266.061 98.2823C266.061 98.0858 266.134 97.9176 266.28 97.7777C266.429 97.6377 266.606 97.5678 266.812 97.5678C267.017 97.5678 267.193 97.6377 267.339 97.7777C267.488 97.9176 267.562 98.0858 267.562 98.2823C267.562 98.4788 267.488 98.647 267.339 98.787C267.193 98.9269 267.017 98.9969 266.812 98.9969ZM272.315 100.14V101.033H268.617V100.14H272.315ZM269.725 107V99.1934C269.725 98.8004 269.817 98.4729 270.002 98.2109C270.186 97.9489 270.426 97.7523 270.721 97.6213C271.015 97.4903 271.327 97.4248 271.654 97.4248C271.913 97.4248 272.124 97.4457 272.288 97.4874C272.452 97.529 272.574 97.5678 272.654 97.6035L272.351 98.5145C272.297 98.4967 272.223 98.4744 272.127 98.4476C272.035 98.4208 271.913 98.4074 271.761 98.4074C271.413 98.4074 271.161 98.4952 271.007 98.6709C270.855 98.8465 270.779 99.1041 270.779 99.4435V107H269.725ZM280.313 100.14V101.033H276.758V100.14H280.313ZM277.794 98.4967H278.848V105.035C278.848 105.333 278.891 105.556 278.977 105.705C279.067 105.851 279.18 105.949 279.317 106C279.457 106.047 279.604 106.071 279.759 106.071C279.875 106.071 279.97 106.065 280.045 106.053C280.119 106.038 280.179 106.026 280.223 106.017L280.438 106.964C280.366 106.991 280.266 107.018 280.138 107.045C280.01 107.074 279.848 107.089 279.652 107.089C279.354 107.089 279.062 107.025 278.776 106.897C278.493 106.769 278.258 106.574 278.071 106.312C277.886 106.05 277.794 105.72 277.794 105.321V98.4967ZM283.099 102.873V107H282.045V97.8536H283.099V101.212H283.189C283.349 100.858 283.591 100.576 283.912 100.368C284.237 100.157 284.668 100.051 285.207 100.051C285.675 100.051 286.084 100.145 286.436 100.332C286.787 100.517 287.059 100.801 287.253 101.185C287.449 101.566 287.548 102.052 287.548 102.641V107H286.494V102.713C286.494 102.168 286.352 101.746 286.069 101.449C285.789 101.148 285.401 100.998 284.904 100.998C284.558 100.998 284.249 101.071 283.975 101.216C283.704 101.362 283.489 101.575 283.332 101.855C283.177 102.135 283.099 102.474 283.099 102.873ZM289.476 107V100.14H290.53V107H289.476ZM290.012 98.9969C289.806 98.9969 289.629 98.9269 289.48 98.787C289.334 98.647 289.261 98.4788 289.261 98.2823C289.261 98.0858 289.334 97.9176 289.48 97.7777C289.629 97.6377 289.806 97.5678 290.012 97.5678C290.217 97.5678 290.393 97.6377 290.539 97.7777C290.688 97.9176 290.762 98.0858 290.762 98.2823C290.762 98.4788 290.688 98.647 290.539 98.787C290.393 98.9269 290.217 98.9969 290.012 98.9969ZM293.514 102.873V107H292.46V100.14H293.478V101.212H293.568C293.729 100.864 293.973 100.584 294.3 100.372C294.628 100.158 295.05 100.051 295.569 100.051C296.033 100.051 296.439 100.146 296.788 100.337C297.136 100.524 297.407 100.81 297.601 101.194C297.794 101.575 297.891 102.058 297.891 102.641V107H296.837V102.713C296.837 102.174 296.697 101.754 296.417 101.453C296.137 101.15 295.753 100.998 295.265 100.998C294.928 100.998 294.628 101.071 294.363 101.216C294.101 101.362 293.894 101.575 293.742 101.855C293.59 102.135 293.514 102.474 293.514 102.873ZM302.586 109.715C302.077 109.715 301.639 109.65 301.273 109.519C300.907 109.391 300.601 109.221 300.357 109.01C300.116 108.801 299.924 108.578 299.781 108.34L300.621 107.75C300.716 107.875 300.837 108.018 300.982 108.179C301.128 108.343 301.328 108.484 301.581 108.603C301.837 108.725 302.172 108.786 302.586 108.786C303.14 108.786 303.597 108.652 303.957 108.384C304.317 108.117 304.497 107.697 304.497 107.125V105.732H304.408C304.331 105.857 304.22 106.012 304.077 106.196C303.938 106.378 303.735 106.54 303.47 106.683C303.208 106.823 302.854 106.893 302.407 106.893C301.853 106.893 301.356 106.762 300.915 106.5C300.478 106.238 300.131 105.857 299.875 105.357C299.622 104.856 299.495 104.249 299.495 103.534C299.495 102.832 299.619 102.22 299.866 101.699C300.113 101.175 300.457 100.77 300.898 100.484C301.338 100.195 301.847 100.051 302.425 100.051C302.872 100.051 303.226 100.125 303.488 100.274C303.753 100.42 303.955 100.587 304.095 100.774C304.238 100.959 304.348 101.111 304.426 101.23H304.533V100.14H305.551V107.197C305.551 107.786 305.417 108.265 305.149 108.635C304.884 109.007 304.527 109.279 304.077 109.452C303.631 109.628 303.134 109.715 302.586 109.715ZM302.55 105.946C302.973 105.946 303.33 105.849 303.622 105.656C303.914 105.462 304.135 105.184 304.287 104.821C304.439 104.457 304.515 104.023 304.515 103.516C304.515 103.022 304.441 102.586 304.292 102.208C304.143 101.83 303.923 101.534 303.631 101.319C303.339 101.105 302.979 100.998 302.55 100.998C302.103 100.998 301.731 101.111 301.434 101.337C301.139 101.563 300.917 101.867 300.768 102.248C300.622 102.629 300.549 103.052 300.549 103.516C300.549 103.993 300.624 104.414 300.773 104.78C300.924 105.144 301.148 105.429 301.442 105.638C301.74 105.843 302.109 105.946 302.55 105.946ZM312.34 101.676L311.393 101.944C311.333 101.787 311.245 101.633 311.129 101.484C311.016 101.333 310.861 101.208 310.665 101.109C310.468 101.011 310.217 100.962 309.91 100.962C309.49 100.962 309.14 101.059 308.861 101.252C308.584 101.443 308.445 101.685 308.445 101.98C308.445 102.242 308.54 102.449 308.731 102.601C308.922 102.753 309.219 102.879 309.624 102.981L310.642 103.231C311.256 103.38 311.713 103.607 312.014 103.914C312.314 104.218 312.465 104.609 312.465 105.089C312.465 105.482 312.351 105.833 312.125 106.143C311.902 106.452 311.589 106.696 311.187 106.875C310.785 107.054 310.318 107.143 309.785 107.143C309.085 107.143 308.506 106.991 308.048 106.687C307.589 106.384 307.299 105.94 307.177 105.357L308.177 105.106C308.273 105.476 308.453 105.752 308.718 105.937C308.986 106.122 309.335 106.214 309.767 106.214C310.258 106.214 310.648 106.11 310.937 105.901C311.229 105.69 311.375 105.437 311.375 105.142C311.375 104.904 311.292 104.704 311.125 104.544C310.958 104.38 310.702 104.258 310.357 104.177L309.213 103.91C308.585 103.761 308.124 103.53 307.829 103.217C307.537 102.902 307.391 102.507 307.391 102.034C307.391 101.647 307.5 101.304 307.717 101.007C307.938 100.709 308.237 100.475 308.615 100.305C308.996 100.136 309.428 100.051 309.91 100.051C310.589 100.051 311.122 100.2 311.509 100.497C311.899 100.795 312.176 101.188 312.34 101.676ZM320.375 107.143C319.732 107.143 319.178 106.991 318.714 106.687C318.249 106.384 317.892 105.965 317.642 105.432C317.392 104.899 317.267 104.291 317.267 103.606C317.267 102.909 317.395 102.294 317.651 101.761C317.91 101.225 318.27 100.807 318.732 100.506C319.196 100.203 319.738 100.051 320.357 100.051C320.84 100.051 321.274 100.14 321.661 100.319C322.048 100.497 322.365 100.748 322.613 101.069C322.86 101.391 323.013 101.766 323.073 102.195H322.019C321.938 101.882 321.76 101.605 321.483 101.364C321.209 101.12 320.84 100.998 320.375 100.998C319.964 100.998 319.604 101.105 319.294 101.319C318.988 101.531 318.748 101.83 318.575 102.217C318.406 102.601 318.321 103.052 318.321 103.57C318.321 104.1 318.404 104.562 318.571 104.955C318.741 105.348 318.979 105.653 319.285 105.87C319.595 106.087 319.958 106.196 320.375 106.196C320.649 106.196 320.898 106.148 321.121 106.053C321.344 105.958 321.533 105.821 321.688 105.642C321.843 105.464 321.953 105.249 322.019 104.999H323.073C323.013 105.404 322.866 105.769 322.63 106.093C322.398 106.415 322.09 106.671 321.706 106.862C321.325 107.049 320.881 107.143 320.375 107.143ZM325.667 102.873V107H324.613V97.8536H325.667V101.212H325.757C325.917 100.858 326.159 100.576 326.48 100.368C326.805 100.157 327.236 100.051 327.775 100.051C328.243 100.051 328.652 100.145 329.003 100.332C329.355 100.517 329.627 100.801 329.821 101.185C330.017 101.566 330.115 102.052 330.115 102.641V107H329.062V102.713C329.062 102.168 328.92 101.746 328.637 101.449C328.357 101.148 327.969 100.998 327.472 100.998C327.126 100.998 326.817 101.071 326.543 101.216C326.272 101.362 326.057 101.575 325.9 101.855C325.745 102.135 325.667 102.474 325.667 102.873ZM334.062 107.161C333.628 107.161 333.233 107.079 332.879 106.915C332.525 106.748 332.243 106.509 332.035 106.196C331.826 105.881 331.722 105.499 331.722 105.053C331.722 104.66 331.8 104.341 331.954 104.097C332.109 103.85 332.316 103.656 332.575 103.516C332.834 103.377 333.12 103.272 333.433 103.204C333.748 103.132 334.065 103.076 334.384 103.034C334.801 102.981 335.139 102.94 335.398 102.914C335.66 102.884 335.85 102.835 335.969 102.766C336.091 102.698 336.152 102.579 336.152 102.409V102.373C336.152 101.933 336.032 101.59 335.791 101.346C335.553 101.102 335.191 100.98 334.705 100.98C334.202 100.98 333.808 101.09 333.522 101.31C333.236 101.531 333.035 101.766 332.919 102.016L331.919 101.659C332.097 101.242 332.335 100.917 332.633 100.685C332.934 100.45 333.261 100.286 333.616 100.194C333.973 100.098 334.324 100.051 334.67 100.051C334.89 100.051 335.143 100.078 335.429 100.131C335.718 100.182 335.996 100.288 336.264 100.448C336.535 100.609 336.76 100.852 336.938 101.176C337.117 101.501 337.206 101.936 337.206 102.48V107H336.152V106.071H336.099C336.027 106.22 335.908 106.379 335.742 106.549C335.575 106.719 335.353 106.863 335.076 106.982C334.799 107.101 334.461 107.161 334.062 107.161ZM334.223 106.214C334.64 106.214 334.991 106.132 335.277 105.968C335.566 105.805 335.783 105.593 335.929 105.334C336.078 105.075 336.152 104.803 336.152 104.517V103.552C336.108 103.606 336.01 103.655 335.858 103.7C335.709 103.741 335.536 103.779 335.34 103.811C335.146 103.841 334.957 103.868 334.772 103.892C334.591 103.912 334.443 103.93 334.33 103.945C334.056 103.981 333.8 104.039 333.562 104.119C333.327 104.197 333.136 104.314 332.991 104.472C332.848 104.627 332.776 104.838 332.776 105.106C332.776 105.473 332.912 105.75 333.183 105.937C333.456 106.122 333.803 106.214 334.223 106.214ZM340.184 102.873V107H339.13V100.14H340.148V101.212H340.238C340.399 100.864 340.643 100.584 340.97 100.372C341.298 100.158 341.72 100.051 342.239 100.051C342.703 100.051 343.109 100.146 343.458 100.337C343.806 100.524 344.077 100.81 344.271 101.194C344.464 101.575 344.561 102.058 344.561 102.641V107H343.507V102.713C343.507 102.174 343.367 101.754 343.087 101.453C342.807 101.15 342.423 100.998 341.935 100.998C341.598 100.998 341.298 101.071 341.033 101.216C340.771 101.362 340.564 101.575 340.412 101.855C340.26 102.135 340.184 102.474 340.184 102.873ZM349.256 109.715C348.747 109.715 348.309 109.65 347.943 109.519C347.577 109.391 347.271 109.221 347.027 109.01C346.786 108.801 346.594 108.578 346.451 108.34L347.291 107.75C347.386 107.875 347.507 108.018 347.652 108.179C347.798 108.343 347.998 108.484 348.251 108.603C348.507 108.725 348.842 108.786 349.256 108.786C349.81 108.786 350.267 108.652 350.627 108.384C350.987 108.117 351.167 107.697 351.167 107.125V105.732H351.078C351 105.857 350.89 106.012 350.747 106.196C350.607 106.378 350.405 106.54 350.14 106.683C349.878 106.823 349.524 106.893 349.077 106.893C348.523 106.893 348.026 106.762 347.585 106.5C347.148 106.238 346.801 105.857 346.545 105.357C346.292 104.856 346.165 104.249 346.165 103.534C346.165 102.832 346.289 102.22 346.536 101.699C346.783 101.175 347.127 100.77 347.568 100.484C348.008 100.195 348.517 100.051 349.095 100.051C349.542 100.051 349.896 100.125 350.158 100.274C350.423 100.42 350.625 100.587 350.765 100.774C350.908 100.959 351.018 101.111 351.096 101.23H351.203V100.14H352.221V107.197C352.221 107.786 352.087 108.265 351.819 108.635C351.554 109.007 351.197 109.279 350.747 109.452C350.301 109.628 349.804 109.715 349.256 109.715ZM349.22 105.946C349.643 105.946 350 105.849 350.292 105.656C350.584 105.462 350.805 105.184 350.957 104.821C351.109 104.457 351.185 104.023 351.185 103.516C351.185 103.022 351.111 102.586 350.962 102.208C350.813 101.83 350.593 101.534 350.301 101.319C350.009 101.105 349.649 100.998 349.22 100.998C348.773 100.998 348.401 101.111 348.104 101.337C347.809 101.563 347.587 101.867 347.438 102.248C347.292 102.629 347.219 103.052 347.219 103.516C347.219 103.993 347.294 104.414 347.443 104.78C347.594 105.144 347.818 105.429 348.112 105.638C348.41 105.843 348.779 105.946 349.22 105.946ZM357.027 107.143C356.366 107.143 355.796 106.997 355.316 106.705C354.84 106.41 354.472 106 354.213 105.473C353.957 104.943 353.829 104.326 353.829 103.624C353.829 102.921 353.957 102.302 354.213 101.766C354.472 101.227 354.832 100.807 355.294 100.506C355.758 100.203 356.3 100.051 356.919 100.051C357.277 100.051 357.63 100.11 357.978 100.23C358.326 100.349 358.643 100.542 358.929 100.81C359.215 101.075 359.443 101.426 359.612 101.864C359.782 102.302 359.867 102.841 359.867 103.481V103.927H354.579V103.016H358.795C358.795 102.629 358.718 102.284 358.563 101.98C358.411 101.676 358.194 101.437 357.911 101.261C357.631 101.085 357.301 100.998 356.919 100.998C356.5 100.998 356.136 101.102 355.83 101.31C355.526 101.516 355.292 101.784 355.129 102.114C354.965 102.445 354.883 102.799 354.883 103.177V103.784C354.883 104.303 354.972 104.742 355.151 105.102C355.333 105.459 355.584 105.732 355.906 105.919C356.227 106.104 356.601 106.196 357.027 106.196C357.304 106.196 357.554 106.157 357.777 106.08C358.003 106 358.198 105.881 358.362 105.723C358.526 105.562 358.652 105.362 358.742 105.124L359.76 105.41C359.653 105.755 359.473 106.059 359.219 106.321C358.966 106.58 358.654 106.783 358.282 106.929C357.909 107.071 357.491 107.143 357.027 107.143ZM362.239 107.071C362.018 107.071 361.829 106.993 361.671 106.835C361.514 106.677 361.435 106.488 361.435 106.268C361.435 106.047 361.514 105.858 361.671 105.7C361.829 105.543 362.018 105.464 362.239 105.464C362.459 105.464 362.648 105.543 362.806 105.7C362.963 105.858 363.042 106.047 363.042 106.268C363.042 106.413 363.005 106.547 362.931 106.67C362.859 106.792 362.763 106.89 362.64 106.964C362.521 107.036 362.387 107.071 362.239 107.071Z" fill="#333333"/>
<rect x="75" y="67" width="119" height="24" rx="7" fill="#EEEEEE"/>
<path d="M90.5684 84V74.8536H94.1769C94.8677 74.8536 95.4572 74.9771 95.9455 75.2243C96.4368 75.4684 96.8104 75.8153 97.0665 76.2648C97.3255 76.7114 97.455 77.2369 97.455 77.8413C97.455 78.4487 97.324 78.9713 97.062 79.4089C96.8 79.8436 96.4204 80.1771 95.9232 80.4093C95.4289 80.6415 94.8305 80.7577 94.1278 80.7577H91.7117V79.2035H93.8152C94.1844 79.2035 94.4911 79.1529 94.7352 79.0516C94.9793 78.9504 95.161 78.7986 95.28 78.5961C95.4021 78.3936 95.4632 78.1421 95.4632 77.8413C95.4632 77.5377 95.4021 77.2816 95.28 77.0732C95.161 76.8648 94.9778 76.707 94.7307 76.5998C94.4866 76.4896 94.1784 76.4346 93.8063 76.4346H92.5022V84H90.5684ZM95.5078 79.8377L97.781 84H95.6463L93.4222 79.8377H95.5078ZM101.775 84.134C101.081 84.134 100.481 83.9866 99.975 83.6918C99.4718 83.3941 99.0832 82.9803 98.8093 82.4503C98.5354 81.9173 98.3985 81.2995 98.3985 80.5969C98.3985 79.8883 98.5354 79.269 98.8093 78.739C99.0832 78.2061 99.4718 77.7922 99.975 77.4975C100.481 77.1997 101.081 77.0509 101.775 77.0509C102.468 77.0509 103.067 77.1997 103.57 77.4975C104.076 77.7922 104.466 78.2061 104.74 78.739C105.014 79.269 105.151 79.8883 105.151 80.5969C105.151 81.2995 105.014 81.9173 104.74 82.4503C104.466 82.9803 104.076 83.3941 103.57 83.6918C103.067 83.9866 102.468 84.134 101.775 84.134ZM101.784 82.6602C102.099 82.6602 102.363 82.5709 102.574 82.3922C102.786 82.2106 102.945 81.9635 103.052 81.6509C103.162 81.3382 103.217 80.9825 103.217 80.5835C103.217 80.1845 103.162 79.8287 103.052 79.5161C102.945 79.2035 102.786 78.9564 102.574 78.7747C102.363 78.5931 102.099 78.5023 101.784 78.5023C101.465 78.5023 101.197 78.5931 100.98 78.7747C100.765 78.9564 100.603 79.2035 100.493 79.5161C100.386 79.8287 100.332 80.1845 100.332 80.5835C100.332 80.9825 100.386 81.3382 100.493 81.6509C100.603 81.9635 100.765 82.2106 100.98 82.3922C101.197 82.5709 101.465 82.6602 101.784 82.6602ZM106.424 84V74.8536H108.326V78.2924H108.384C108.468 78.1078 108.588 77.9202 108.746 77.7297C108.907 77.5362 109.115 77.3754 109.371 77.2474C109.631 77.1164 109.952 77.0509 110.336 77.0509C110.836 77.0509 111.298 77.1819 111.721 77.4439C112.143 77.7029 112.481 78.0944 112.734 78.6184C112.987 79.1395 113.114 79.793 113.114 80.579C113.114 81.3442 112.99 81.9903 112.743 82.5173C112.499 83.0413 112.166 83.4388 111.743 83.7097C111.323 83.9777 110.853 84.1117 110.332 84.1117C109.962 84.1117 109.648 84.0506 109.389 83.9285C109.133 83.8065 108.923 83.6531 108.76 83.4685C108.596 83.281 108.471 83.0919 108.384 82.9014H108.3V84H106.424ZM108.286 80.5701C108.286 80.978 108.343 81.3338 108.456 81.6375C108.569 81.9412 108.733 82.1779 108.947 82.3476C109.162 82.5143 109.422 82.5977 109.729 82.5977C110.038 82.5977 110.3 82.5128 110.515 82.3431C110.729 82.1704 110.891 81.9322 111.002 81.6285C111.115 81.3219 111.171 80.9691 111.171 80.5701C111.171 80.1741 111.116 79.8258 111.006 79.525C110.896 79.2243 110.734 78.9891 110.519 78.8194C110.305 78.6497 110.041 78.5648 109.729 78.5648C109.419 78.5648 109.157 78.6467 108.943 78.8105C108.731 78.9742 108.569 79.2065 108.456 79.5072C108.343 79.8079 108.286 80.1622 108.286 80.5701ZM117.51 84.134C116.804 84.134 116.197 83.9911 115.688 83.7052C115.181 83.4164 114.791 83.0085 114.517 82.4816C114.244 81.9516 114.107 81.3248 114.107 80.6014C114.107 79.8957 114.244 79.2764 114.517 78.7435C114.791 78.2105 115.177 77.7952 115.674 77.4975C116.174 77.1997 116.761 77.0509 117.434 77.0509C117.886 77.0509 118.308 77.1238 118.698 77.2697C119.091 77.4126 119.433 77.6285 119.725 77.9173C120.02 78.2061 120.249 78.5693 120.413 79.007C120.576 79.4417 120.658 79.9508 120.658 80.5344V81.0569H114.866V79.8779H118.867C118.867 79.6039 118.808 79.3613 118.689 79.1499C118.57 78.9385 118.404 78.7733 118.193 78.6542C117.985 78.5321 117.742 78.4711 117.465 78.4711C117.176 78.4711 116.92 78.538 116.697 78.672C116.477 78.803 116.304 78.9802 116.179 79.2035C116.054 79.4238 115.99 79.6694 115.987 79.9404V81.0614C115.987 81.4008 116.049 81.694 116.174 81.9412C116.302 82.1883 116.483 82.3788 116.715 82.5128C116.947 82.6468 117.222 82.7138 117.541 82.7138C117.752 82.7138 117.946 82.684 118.122 82.6245C118.297 82.5649 118.448 82.4756 118.573 82.3565C118.698 82.2374 118.793 82.0915 118.858 81.9188L120.618 82.0349C120.529 82.4577 120.346 82.8269 120.069 83.1425C119.795 83.4551 119.441 83.6993 119.006 83.875C118.574 84.0476 118.075 84.134 117.51 84.134ZM121.9 84V77.1402H123.744V78.3371H123.816C123.941 77.9113 124.151 77.5898 124.445 77.3724C124.74 77.1521 125.08 77.0419 125.464 77.0419C125.559 77.0419 125.662 77.0479 125.772 77.0598C125.882 77.0717 125.979 77.0881 126.062 77.1089V78.7971C125.973 78.7703 125.849 78.7465 125.691 78.7256C125.534 78.7048 125.389 78.6944 125.258 78.6944C124.978 78.6944 124.728 78.7554 124.508 78.8775C124.291 78.9966 124.118 79.1633 123.99 79.3777C123.865 79.592 123.802 79.8392 123.802 80.119V84H121.9ZM131.038 77.1402V78.5693H126.907V77.1402H131.038ZM127.845 75.4967H129.748V81.892C129.748 82.0677 129.775 82.2047 129.828 82.3029C129.882 82.3982 129.956 82.4652 130.051 82.5039C130.15 82.5426 130.263 82.5619 130.391 82.5619C130.48 82.5619 130.569 82.5545 130.659 82.5396C130.748 82.5217 130.817 82.5083 130.864 82.4994L131.163 83.9151C131.068 83.9449 130.934 83.9792 130.762 84.0179C130.589 84.0595 130.379 84.0849 130.132 84.0938C129.673 84.1117 129.271 84.0506 128.926 83.9107C128.584 83.7707 128.317 83.5534 128.127 83.2586C127.936 82.9639 127.842 82.5917 127.845 82.1421V75.4967ZM140.186 77.4841C140.15 77.1238 139.997 76.8439 139.726 76.6445C139.455 76.445 139.087 76.3452 138.623 76.3452C138.307 76.3452 138.041 76.3899 137.823 76.4792C137.606 76.5656 137.439 76.6861 137.323 76.841C137.21 76.9958 137.154 77.1714 137.154 77.3679C137.148 77.5317 137.182 77.6746 137.256 77.7967C137.334 77.9188 137.439 78.0245 137.573 78.1138C137.707 78.2001 137.862 78.276 138.038 78.3415C138.213 78.4041 138.401 78.4577 138.601 78.5023L139.422 78.6988C139.821 78.7881 140.187 78.9072 140.521 79.0561C140.854 79.205 141.143 79.3881 141.387 79.6054C141.631 79.8228 141.821 80.0788 141.954 80.3736C142.091 80.6683 142.161 81.0063 142.164 81.3874C142.161 81.9471 142.019 82.4324 141.736 82.8433C141.456 83.2512 141.051 83.5683 140.521 83.7946C139.994 84.0179 139.358 84.1295 138.614 84.1295C137.876 84.1295 137.232 84.0164 136.685 83.7901C136.14 83.5638 135.714 83.2289 135.407 82.7852C135.104 82.3386 134.944 81.7863 134.929 81.1283H136.801C136.822 81.435 136.909 81.6911 137.064 81.8965C137.222 82.099 137.432 82.2523 137.694 82.3565C137.959 82.4577 138.258 82.5083 138.592 82.5083C138.919 82.5083 139.203 82.4607 139.445 82.3654C139.689 82.2702 139.878 82.1377 140.012 81.968C140.146 81.7982 140.213 81.6032 140.213 81.3829C140.213 81.1775 140.152 81.0048 140.03 80.8648C139.911 80.7249 139.735 80.6058 139.503 80.5076C139.273 80.4093 138.992 80.32 138.659 80.2396L137.663 79.9895C136.892 79.8019 136.283 79.5087 135.836 79.1097C135.389 78.7107 135.168 78.1733 135.171 77.4975C135.168 76.9437 135.315 76.4599 135.613 76.046C135.913 75.6322 136.326 75.3091 136.85 75.0769C137.374 74.8446 137.969 74.7285 138.636 74.7285C139.315 74.7285 139.908 74.8446 140.414 75.0769C140.923 75.3091 141.319 75.6322 141.602 76.046C141.885 76.4599 142.03 76.9392 142.039 77.4841H140.186ZM143.429 84V77.1402H145.332V84H143.429ZM144.385 76.2559C144.102 76.2559 143.86 76.1621 143.657 75.9745C143.458 75.784 143.358 75.5562 143.358 75.2912C143.358 75.0292 143.458 74.8045 143.657 74.6169C143.86 74.4263 144.102 74.3311 144.385 74.3311C144.668 74.3311 144.909 74.4263 145.109 74.6169C145.311 74.8045 145.412 75.0292 145.412 75.2912C145.412 75.5562 145.311 75.784 145.109 75.9745C144.909 76.1621 144.668 76.2559 144.385 76.2559ZM146.856 84V77.1402H148.669V78.3505H148.75C148.892 77.9485 149.131 77.6314 149.464 77.3992C149.798 77.167 150.197 77.0509 150.661 77.0509C151.131 77.0509 151.532 77.1685 151.862 77.4037C152.193 77.6359 152.413 77.9515 152.523 78.3505H152.595C152.735 77.9575 152.988 77.6434 153.354 77.4081C153.723 77.17 154.159 77.0509 154.663 77.0509C155.303 77.0509 155.822 77.2548 156.221 77.6627C156.623 78.0676 156.824 78.6423 156.824 79.3866V84H154.926V79.7617C154.926 79.3806 154.825 79.0948 154.622 78.9043C154.42 78.7137 154.167 78.6184 153.863 78.6184C153.518 78.6184 153.248 78.7286 153.055 78.9489C152.861 79.1663 152.765 79.4536 152.765 79.8109V84H150.92V79.7215C150.92 79.3851 150.823 79.1171 150.63 78.9177C150.439 78.7182 150.188 78.6184 149.875 78.6184C149.664 78.6184 149.473 78.672 149.303 78.7792C149.137 78.8834 149.004 79.0308 148.906 79.2214C148.808 79.4089 148.758 79.6292 148.758 79.8823V84H146.856ZM158.327 84V77.1402H160.14V78.3505H160.221C160.363 77.9485 160.602 77.6314 160.935 77.3992C161.269 77.167 161.668 77.0509 162.132 77.0509C162.602 77.0509 163.003 77.1685 163.333 77.4037C163.664 77.6359 163.884 77.9515 163.994 78.3505H164.066C164.206 77.9575 164.459 77.6434 164.825 77.4081C165.194 77.17 165.63 77.0509 166.134 77.0509C166.774 77.0509 167.293 77.2548 167.692 77.6627C168.094 78.0676 168.295 78.6423 168.295 79.3866V84H166.397V79.7617C166.397 79.3806 166.296 79.0948 166.093 78.9043C165.891 78.7137 165.638 78.6184 165.334 78.6184C164.989 78.6184 164.719 78.7286 164.526 78.9489C164.332 79.1663 164.236 79.4536 164.236 79.8109V84H162.391V79.7215C162.391 79.3851 162.294 79.1171 162.101 78.9177C161.91 78.7182 161.659 78.6184 161.346 78.6184C161.135 78.6184 160.944 78.672 160.774 78.7792C160.608 78.8834 160.475 79.0308 160.377 79.2214C160.279 79.4089 160.229 79.6292 160.229 79.8823V84H158.327ZM169.798 84V77.1402H171.7V84H169.798ZM170.754 76.2559C170.471 76.2559 170.228 76.1621 170.026 75.9745C169.826 75.784 169.726 75.5562 169.726 75.2912C169.726 75.0292 169.826 74.8045 170.026 74.6169C170.228 74.4263 170.471 74.3311 170.754 74.3311C171.037 74.3311 171.278 74.4263 171.477 74.6169C171.68 74.8045 171.781 75.0292 171.781 75.2912C171.781 75.5562 171.68 75.784 171.477 75.9745C171.278 76.1621 171.037 76.2559 170.754 76.2559ZM176.324 84.134C175.621 84.134 175.017 83.9851 174.511 83.6874C174.008 83.3867 173.62 82.9698 173.35 82.4369C173.082 81.9039 172.948 81.2906 172.948 80.5969C172.948 79.8942 173.083 79.2779 173.354 78.748C173.628 78.215 174.016 77.7997 174.52 77.5019C175.023 77.2012 175.621 77.0509 176.315 77.0509C176.913 77.0509 177.437 77.1595 177.887 77.3769C178.337 77.5942 178.692 77.8994 178.954 78.2924C179.216 78.6854 179.361 79.1469 179.388 79.6769H177.592C177.542 79.3345 177.408 79.0591 177.19 78.8507C176.976 78.6393 176.695 78.5336 176.346 78.5336C176.051 78.5336 175.794 78.614 175.574 78.7747C175.356 78.9325 175.187 79.1633 175.065 79.467C174.942 79.7707 174.881 80.1384 174.881 80.5701C174.881 81.0078 174.941 81.3799 175.06 81.6866C175.182 81.9933 175.353 82.227 175.574 82.3878C175.794 82.5485 176.051 82.6289 176.346 82.6289C176.564 82.6289 176.759 82.5843 176.931 82.4949C177.107 82.4056 177.251 82.2761 177.365 82.1064C177.481 81.9337 177.557 81.7268 177.592 81.4856H179.388C179.358 82.0096 179.215 82.4711 178.959 82.8701C178.706 83.2661 178.356 83.5757 177.909 83.799C177.463 84.0223 176.934 84.134 176.324 84.134ZM182.508 80.0342V84H180.606V74.8536H182.455V78.3505H182.535C182.69 77.9456 182.94 77.6285 183.285 77.3992C183.631 77.167 184.064 77.0509 184.585 77.0509C185.061 77.0509 185.477 77.1551 185.831 77.3635C186.188 77.5689 186.465 77.8652 186.662 78.2522C186.861 78.6363 186.959 79.0963 186.956 79.6322V84H185.054V79.9716C185.057 79.5489 184.95 79.2199 184.732 78.9847C184.518 78.7494 184.217 78.6318 183.83 78.6318C183.571 78.6318 183.342 78.6869 183.142 78.7971C182.946 78.9072 182.791 79.068 182.678 79.2794C182.568 79.4878 182.511 79.7394 182.508 80.0342Z" fill="#333333"/>
<rect x="82" y="71.2725" width="1.68061" height="15.1255" rx="0.840304" fill="url(#paint0_linear_39_2462)"/>
<circle cx="369" cy="166" r="21" fill="#FAE3F3"/>
<path d="M358.969 164.361C359.59 163.31 360.556 162.512 361.694 162.294C364.143 161.859 366.488 163.817 366.936 166.683C366.936 166.683 366.936 166.683 366.936 166.719C366.971 167.009 367.005 167.299 367.005 167.59C368.109 168.025 368.316 169.548 367.764 170.491C367.247 171.326 366.384 171.797 365.35 171.507C364.763 172.051 364.108 172.45 363.349 172.632C359.935 173.538 358.038 171.253 358.107 168.243C358.142 166.937 358.28 165.486 358.969 164.361Z" fill="white"/>
<path d="M361.938 173.139C362.421 173.139 362.904 173.067 363.455 172.922C364.18 172.741 364.869 172.342 365.456 171.834C366.49 172.051 367.422 171.616 368.008 170.637C368.353 170.02 368.456 169.222 368.249 168.533C368.077 168.025 367.766 167.626 367.318 167.408C367.318 167.155 367.284 166.901 367.249 166.647V166.61C367.008 165.087 366.214 163.709 365.042 162.838C364.042 162.076 362.835 161.786 361.697 162.004C360.524 162.222 359.489 162.983 358.765 164.18C358.006 165.414 357.903 167.009 357.868 168.243C357.834 169.948 358.42 171.398 359.455 172.269C360.145 172.849 361.007 173.139 361.938 173.139ZM365.318 171.253L365.214 171.362C364.663 171.87 364.007 172.233 363.317 172.45C361.903 172.849 360.662 172.668 359.8 171.906C358.903 171.145 358.386 169.839 358.386 168.315C358.386 167.082 358.524 165.667 359.179 164.543C359.834 163.491 360.731 162.802 361.731 162.621C362.766 162.439 363.8 162.693 364.697 163.382C365.732 164.144 366.456 165.413 366.697 166.792V166.828C366.732 167.082 366.766 167.336 366.766 167.662V167.844L366.939 167.916C367.422 168.098 367.629 168.497 367.732 168.787C367.904 169.295 367.835 169.948 367.56 170.419C367.077 171.217 366.318 171.544 365.421 171.326L365.318 171.253Z" fill="#030047"/>
<path d="M361.351 167.834C361.249 167.665 361.297 167.441 361.458 167.334C361.619 167.227 361.832 167.277 361.934 167.447C362.036 167.616 361.988 167.84 361.827 167.947C361.666 168.054 361.453 168.004 361.351 167.834Z" fill="#030047"/>
<path d="M359.421 169.621C359.386 168.823 359.49 167.989 359.662 167.227C359.731 167.009 360.042 167.082 360.007 167.299C359.835 168.061 359.731 168.823 359.766 169.621C359.766 169.838 359.421 169.838 359.421 169.621Z" fill="#030047"/>
<path d="M365.044 169.512C365.458 168.787 366.32 168.424 367.079 168.678C367.286 168.751 367.217 169.113 367.01 169.041C366.389 168.823 365.7 169.077 365.355 169.658C365.251 169.875 364.941 169.73 365.044 169.512Z" fill="#030047"/>
<path d="M365.215 167.663C364.628 168.388 364.318 166.974 362.593 165.632C361.835 165.051 357.662 164.616 357.662 163.02C357.662 160.735 360.559 162.476 361.731 162.258C364.18 161.823 367.56 163.854 367.215 167.808C367.215 167.88 365.594 167.518 365.215 167.663Z" fill="#030047"/>
<path d="M366.284 165.414C365.491 164.797 365.56 164.652 364.629 164.362C364.663 161.496 368.112 157.615 371.733 160.045C373.389 161.17 373.664 163.745 373.733 163.927C375.423 163.237 377.631 163.382 378.941 164.652C380.872 166.502 380.148 169.694 378.113 171.108C375.906 172.668 372.802 172.378 370.492 171.072C366.801 168.968 367.732 164.18 367.388 164.108C366.939 163.999 366.491 164.942 366.284 165.414Z" fill="#030047"/>
<defs>
<filter id="filter0_d_39_2462" x="0.726574" y="0.473971" width="405.557" height="149.557" filterUnits="userSpaceOnUse" color-interpolation-filters="sRGB">
<feFlood flood-opacity="0" result="BackgroundImageFix"/>
<feColorMatrix in="SourceAlpha" type="matrix" values="0 0 0 0 0 0 0 0 0 0 0 0 0 0 0 0 0 0 127 0" result="hardAlpha"/>
<feOffset dx="2.50521" dy="1.2526"/>
<feGaussianBlur stdDeviation="6.88932"/>
<feColorMatrix type="matrix" values="0 0 0 0 0 0 0 0 0 0 0 0 0 0 0 0 0 0 0.16 0"/>
<feBlend mode="normal" in2="BackgroundImageFix" result="effect1_dropShadow_39_2462"/>
<feBlend mode="normal" in="SourceGraphic" in2="effect1_dropShadow_39_2462" result="shape"/>
</filter>
<linearGradient id="paint0_linear_39_2462" x1="82.8403" y1="71.2725" x2="88.3885" y2="98.7053" gradientUnits="userSpaceOnUse">
<stop stop-color="#DE31D7"/>
<stop offset="1" stop-color="#4E7AEC"/>
</linearGradient>
</defs>
</svg>
