<svg width="23" height="23" viewBox="0 0 23 23" fill="none" xmlns="http://www.w3.org/2000/svg">
<path opacity="0.2" d="M11.5029 22C17.3019 22 22.0029 17.299 22.0029 11.5C22.0029 5.70101 17.3019 1 11.5029 1C5.70394 1 1.00293 5.70101 1.00293 11.5C1.00293 17.299 5.70394 22 11.5029 22Z" fill="white"/>
<path d="M11.5029 15.875C13.9192 15.875 15.8779 13.9162 15.8779 11.5C15.8779 9.08375 13.9192 7.125 11.5029 7.125C9.08668 7.125 7.12793 9.08375 7.12793 11.5C7.12793 13.9162 9.08668 15.875 11.5029 15.875Z" stroke="white" stroke-width="1.75" stroke-linecap="round" stroke-linejoin="round"/>
<path d="M17.3076 20.2502C15.3582 21.544 13.0327 22.1496 10.6999 21.9712C8.36712 21.7927 6.16076 20.8403 4.43089 19.2651C2.70102 17.6899 1.54674 15.5822 1.15118 13.2763C0.755632 10.9704 1.14147 8.59839 2.24748 6.53674C3.35349 4.47508 5.11632 2.84183 7.25625 1.89612C9.39618 0.95042 11.7907 0.746436 14.0597 1.31654C16.3288 1.88664 18.3425 3.19818 19.7813 5.04304C21.2201 6.8879 22.0016 9.16042 22.0018 11.5C22.0018 13.9163 21.1268 15.875 18.9393 15.875C16.7518 15.875 15.8768 13.9163 15.8768 11.5V7.12501" stroke="white" stroke-width="1.75" stroke-linecap="round" stroke-linejoin="round"/>
</svg>
