<svg width="44" height="33" viewBox="0 0 44 33" fill="none" xmlns="http://www.w3.org/2000/svg">
<path d="M26.4848 0.000146334C26.1651 0.00493049 25.8553 0.111732 25.6006 0.304972C25.3458 0.498212 25.1595 0.767783 25.0688 1.07437L16.0688 30.0744C16.0026 30.2644 15.9753 30.4658 15.9885 30.6667C16.0018 30.8675 16.0553 31.0636 16.1459 31.2433C16.2365 31.423 16.3623 31.5826 16.5159 31.7127C16.6695 31.8428 16.8477 31.9406 17.0399 32.0004C17.232 32.0601 17.4343 32.0806 17.6345 32.0606C17.8348 32.0406 18.029 31.9805 18.2055 31.8839C18.3821 31.7873 18.5374 31.6562 18.6622 31.4983C18.787 31.3404 18.8788 31.1591 18.9321 30.965L27.9321 1.96499C28.006 1.73811 28.0248 1.49687 27.9868 1.26129C27.9488 1.02571 27.8551 0.802596 27.7136 0.610467C27.5721 0.418339 27.3868 0.262742 27.1731 0.156595C26.9593 0.0504478 26.7234 -0.00318629 26.4848 0.000146334V0.000146334ZM11.5102 5.00405C11.1201 5.00562 10.7461 5.15904 10.4672 5.43179L0.467221 14.9318C0.319612 15.0719 0.202068 15.2407 0.121745 15.4277C0.0414223 15.6147 0 15.8161 0 16.0197C0 16.2232 0.0414223 16.4246 0.121745 16.6117C0.202068 16.7987 0.319612 16.9674 0.467221 17.1076L10.4672 26.6076C10.6101 26.7433 10.7783 26.8495 10.9622 26.9202C11.1461 26.9909 11.3422 27.0247 11.5391 27.0197C11.7361 27.0146 11.9302 26.9708 12.1102 26.8907C12.2903 26.8107 12.4528 26.6959 12.5885 26.553C12.7242 26.4102 12.8304 26.2419 12.9011 26.058C12.9718 25.8741 13.0055 25.678 13.0004 25.4811C12.9953 25.2841 12.9515 25.09 12.8714 24.91C12.7913 24.73 12.6765 24.5675 12.5336 24.4318L3.67816 16.0197L12.5336 7.60757C12.7562 7.40259 12.9115 7.13511 12.9793 6.84026C13.0471 6.5454 13.0241 6.23694 12.9134 5.95536C12.8027 5.67379 12.6095 5.43226 12.3591 5.26249C12.1086 5.09271 11.8127 5.00263 11.5102 5.00405V5.00405ZM32.4457 5.00601C32.1474 5.01385 31.8583 5.11047 31.6152 5.28353C31.3721 5.45659 31.1861 5.69821 31.081 5.97751C30.976 6.25681 30.9566 6.5611 31.0254 6.85146C31.0942 7.14183 31.248 7.40508 31.4672 7.60757L40.3227 16.0197L31.4672 24.4318C31.3243 24.5675 31.2096 24.73 31.1295 24.91C31.0494 25.09 31.0055 25.2841 31.0004 25.4811C30.9953 25.678 31.0291 25.8741 31.0998 26.058C31.1705 26.2419 31.2767 26.4102 31.4124 26.553C31.5481 26.6959 31.7106 26.8107 31.8906 26.8907C32.0707 26.9708 32.2647 27.0146 32.4617 27.0197C32.6587 27.0247 32.8547 26.9909 33.0387 26.9202C33.2226 26.8495 33.3908 26.7433 33.5336 26.6076L43.5336 17.1076C43.6812 16.9674 43.7988 16.7987 43.8791 16.6117C43.9594 16.4246 44.0008 16.2232 44.0008 16.0197C44.0008 15.8161 43.9594 15.6147 43.8791 15.4277C43.7988 15.2407 43.6812 15.0719 43.5336 14.9318L33.5336 5.43179C33.39 5.29166 33.2197 5.18178 33.0328 5.10865C32.846 5.03551 32.6463 5.00061 32.4457 5.00601V5.00601Z" fill="white"/>
</svg>
