<svg width="36" height="42" viewBox="0 0 36 42" fill="none" xmlns="http://www.w3.org/2000/svg">
<path d="M18.0291 4.4702e-05C12.5221 -0.0163505 7.98609 4.47928 7.98609 9.99809C7.98609 10.9616 8.18378 11.8732 8.44117 12.7559L6.4314 12.209C6.43075 12.209 6.4301 12.209 6.42945 12.209C4.29877 11.6286 1.91408 12.4096 0.720465 14.3868C-0.845523 16.9795 0.255797 20.34 2.91773 21.5508L7.69312 23.7207C7.87649 23.8042 7.98804 23.9762 7.98804 24.1778V24.7754C7.98804 25.3435 7.84982 25.9046 7.5857 26.4063L3.71265 33.7618C2.44073 36.1791 2.9714 39.2974 5.26343 40.9551C6.23404 41.6568 7.36981 42 8.48414 42C10.1441 42 11.7834 41.2416 12.8552 39.8399L17.9861 33.129L23.1169 39.8379C24.1887 41.2396 25.83 41.9961 27.49 41.9961C28.6043 41.9961 29.7401 41.6548 30.7107 40.9532C33.0027 39.2955 33.5334 36.1771 32.2615 33.7598C32.2608 33.7598 32.2602 33.7598 32.2595 33.7598L28.3884 26.4043C28.3884 26.4037 28.3884 26.403 28.3884 26.4024C28.124 25.9002 27.9861 25.3429 27.9861 24.7735V24.1758C27.9861 23.976 28.0968 23.8018 28.2791 23.7188L33.0545 21.5489C35.7187 20.3404 36.8175 16.9792 35.2517 14.3868C34.0581 12.4096 31.6734 11.6286 29.5427 12.209L27.5212 12.7598C27.9321 11.3568 28.1064 9.86034 27.8416 8.28911C27.11 3.94234 23.5183 0.557681 19.1423 0.0644978C18.7676 0.022264 18.3962 0.0011377 18.0291 4.4702e-05ZM18.0134 2.99809C18.2744 2.99953 18.539 3.01483 18.8064 3.04497C21.8304 3.38578 24.3801 5.78992 24.8845 8.78715C25.23 10.8367 24.6914 12.6947 23.6033 14.1602C23.4174 14.4106 23.3143 14.7127 23.3081 15.0244C23.3019 15.3362 23.393 15.6421 23.5687 15.8997C23.7444 16.1573 23.996 16.3537 24.2886 16.4616C24.5811 16.5696 24.9 16.5837 25.2009 16.502L30.3318 15.1036C31.2551 14.852 32.241 15.2047 32.6834 15.9375C33.3596 17.0571 32.8979 18.3249 31.8142 18.8165C31.8142 18.8171 31.8142 18.8178 31.8142 18.8184L27.0369 20.9883C25.7912 21.5553 24.9861 22.8076 24.9861 24.1758V24.7735C24.9861 25.8281 25.2425 26.867 25.7341 27.8008L29.6052 35.1563C30.2233 36.331 29.9489 37.8012 28.9529 38.5215C28.5015 38.8479 27.9977 38.9961 27.49 38.9961C26.734 38.9961 25.994 38.662 25.4998 38.0157L19.1775 29.7481C19.0375 29.5651 18.8571 29.4168 18.6505 29.3147C18.4439 29.2126 18.2165 29.1595 17.9861 29.1595C17.7556 29.1595 17.5283 29.2126 17.3217 29.3147C17.115 29.4168 16.9347 29.5651 16.7947 29.7481L10.4724 38.0176C9.97821 38.6639 9.24015 39 8.48414 39C7.97647 39 7.47264 38.8498 7.02125 38.5235C6.02528 37.8032 5.74887 36.3329 6.36695 35.1582L10.24 27.8028C10.7319 26.8685 10.988 25.8293 10.988 24.7754V24.1778C10.988 22.8093 10.1819 21.5568 8.93726 20.9903C8.93661 20.9903 8.93596 20.9903 8.93531 20.9903L4.15992 18.8204C3.07585 18.3272 2.61281 17.0568 3.28882 15.9375C3.73121 15.2047 4.71902 14.852 5.64234 15.1036L10.7712 16.502C11.0723 16.5843 11.3915 16.5706 11.6845 16.4629C11.9774 16.3552 12.2294 16.1588 12.4055 15.9011C12.5815 15.6433 12.6728 15.3371 12.6666 15.0251C12.6604 14.7131 12.557 14.4107 12.3709 14.1602C11.5016 12.9907 10.9861 11.5635 10.9861 9.99809C10.9861 6.1044 14.0988 2.97652 18.0134 2.99809ZM15.4861 6.99809C15.0883 6.99809 14.7067 7.15613 14.4254 7.43743C14.1441 7.71874 13.9861 8.10027 13.9861 8.49809C13.9861 8.89592 14.1441 9.27745 14.4254 9.55875C14.7067 9.84006 15.0883 9.99809 15.4861 9.99809C15.8839 9.99809 16.2654 9.84006 16.5467 9.55875C16.8281 9.27745 16.9861 8.89592 16.9861 8.49809C16.9861 8.10027 16.8281 7.71874 16.5467 7.43743C16.2654 7.15613 15.8839 6.99809 15.4861 6.99809ZM20.4861 6.99809C20.0883 6.99809 19.7067 7.15613 19.4254 7.43743C19.1441 7.71874 18.9861 8.10027 18.9861 8.49809C18.9861 8.89592 19.1441 9.27745 19.4254 9.55875C19.7067 9.84006 20.0883 9.99809 20.4861 9.99809C20.8839 9.99809 21.2654 9.84006 21.5467 9.55875C21.8281 9.27745 21.9861 8.89592 21.9861 8.49809C21.9861 8.10027 21.8281 7.71874 21.5467 7.43743C21.2654 7.15613 20.8839 6.99809 20.4861 6.99809V6.99809ZM16.0017 11.9864C15.8283 11.9826 15.6569 12.024 15.5044 12.1065C15.3518 12.189 15.2233 12.3097 15.1315 12.4569C15.0397 12.6041 14.9878 12.7725 14.9808 12.9458C14.9738 13.1191 15.0119 13.2913 15.0916 13.4454C15.0916 13.4454 15.3337 13.9074 15.7986 14.2793C16.2635 14.6512 17.0139 14.9981 17.9861 14.9981C18.9583 14.9981 19.7087 14.6512 20.1736 14.2793C20.6385 13.9074 20.8806 13.4454 20.8806 13.4454C20.9394 13.3279 20.9744 13.2 20.9838 13.069C20.9931 12.9379 20.9765 12.8064 20.935 12.6818C20.8935 12.5571 20.8278 12.4419 20.7417 12.3427C20.6557 12.2435 20.5509 12.1622 20.4334 12.1034C20.3159 12.0447 20.188 12.0096 20.057 12.0003C19.926 11.991 19.7944 12.0076 19.6698 12.0492C19.5452 12.0907 19.43 12.1564 19.3308 12.2425C19.2316 12.3286 19.1503 12.4333 19.0916 12.5508C19.0916 12.5508 19.0838 12.5887 18.9236 12.7168C18.7635 12.8449 18.5139 12.9981 17.9861 12.9981C17.4583 12.9981 17.2087 12.8449 17.0486 12.7168C16.8885 12.5887 16.8806 12.5508 16.8806 12.5508C16.8004 12.3849 16.6758 12.2443 16.5207 12.1447C16.3656 12.0451 16.186 11.9903 16.0017 11.9864V11.9864ZM17.9861 18.9981C17.5883 18.9981 17.2067 19.1561 16.9254 19.4374C16.6441 19.7187 16.4861 20.1003 16.4861 20.4981C16.4861 20.8959 16.6441 21.2774 16.9254 21.5588C17.2067 21.8401 17.5883 21.9981 17.9861 21.9981C18.3839 21.9981 18.7654 21.8401 19.0467 21.5588C19.3281 21.2774 19.4861 20.8959 19.4861 20.4981C19.4861 20.1003 19.3281 19.7187 19.0467 19.4374C18.7654 19.1561 18.3839 18.9981 17.9861 18.9981V18.9981ZM17.9861 23.9981C17.5883 23.9981 17.2067 24.1561 16.9254 24.4374C16.6441 24.7187 16.4861 25.1003 16.4861 25.4981C16.4861 25.8959 16.6441 26.2774 16.9254 26.5588C17.2067 26.8401 17.5883 26.9981 17.9861 26.9981C18.3839 26.9981 18.7654 26.8401 19.0467 26.5588C19.3281 26.2774 19.4861 25.8959 19.4861 25.4981C19.4861 25.1003 19.3281 24.7187 19.0467 24.4374C18.7654 24.1561 18.3839 23.9981 17.9861 23.9981Z" fill="white"/>
</svg>
