<svg width="26" height="29" viewBox="0 0 26 29" fill="none" xmlns="http://www.w3.org/2000/svg">
<path opacity="0.2" d="M1.13848 7.67981C1.04779 7.83364 0.999968 8.00895 1 8.18753V20.5178C1 20.6953 1.04721 20.8695 1.13679 21.0227C1.22637 21.1758 1.35509 21.3024 1.50974 21.3894L12.5097 27.5769C12.6594 27.6611 12.8283 27.7054 13 27.7053L13.0013 27.7053L13.1186 14.3527L1.1385 7.67982L1.13848 7.67981Z" fill="#47C1FE"/>
<path d="M25 20.5178V8.1875C25 8.01006 24.9528 7.83582 24.8632 7.68265C24.7736 7.52949 24.6449 7.40292 24.4903 7.31592L13.4903 1.12842C13.3406 1.04423 13.1717 1 13 1C12.8283 1 12.6594 1.04423 12.5097 1.12842L1.50974 7.31592C1.35509 7.40292 1.22637 7.52949 1.13679 7.68265C1.04721 7.83582 1 8.01006 1 8.1875V20.5178C1 20.6952 1.04721 20.8695 1.13679 21.0227C1.22637 21.1758 1.35509 21.3024 1.50974 21.3894L12.5097 27.5769C12.6594 27.6611 12.8283 27.7053 13 27.7053C13.1717 27.7053 13.3406 27.6611 13.4903 27.5769L24.4903 21.3894C24.6449 21.3024 24.7736 21.1758 24.8632 21.0227C24.9528 20.8695 25 20.6952 25 20.5178Z" stroke="#47C1FE" stroke-width="2" stroke-linecap="round" stroke-linejoin="round"/>
<path d="M24.8623 7.68093L13.1188 14.3527L1.13867 7.67981" stroke="#47C1FE" stroke-width="2" stroke-linecap="round" stroke-linejoin="round"/>
<path d="M13.1183 14.3527L13.001 27.7053" stroke="#47C1FE" stroke-width="2" stroke-linecap="round" stroke-linejoin="round"/>
</svg>
