<svg xmlns="http://www.w3.org/2000/svg"  viewBox="0 0 48 48" width="48px" height="48px"><path fill="#3dd9eb" d="M17,4l18,19L21,36C21,36,7,20,17,4z"/><path fill="#3dd9eb" d="M10,4l18,19L18,33C12,33-0.676,20.572,10,4z"/><path fill="#00b3d7" d="M28,23L14.65,8.908c-3.263,9.438,0.604,18.286,3.576,23.167L28,23z"/><polygon fill="#f5bc00" points="41,17 46,12 38,12"/><polygon fill="#f5bc00" points="41,15 46,20 38,20"/><circle cx="35.5" cy="15.5" r="6.5" fill="#3dd9eb"/><path fill="#3dd9eb" d="M14,38.368h6.223C28.937,38.368,36,31.305,36,22.592V17h-6.223C21.063,17,14,24.063,14,32.777V38.368	z"/><path fill="#3dd9eb" d="M13.121,41.121l6.243-6.243l-4.243-4.243L4.636,41.121l0,0C6.979,43.464,10.778,43.464,13.121,41.121	z"/><circle cx="36.5" cy="15.5" r="1.5" fill="#00b3d7"/></svg>