<svg width="48" height="40" viewBox="0 0 48 40" fill="none" xmlns="http://www.w3.org/2000/svg">
<path d="M23.9844 0.000121978C23.7195 0.00426239 23.4671 0.113323 23.2825 0.303367C23.098 0.493411 22.9964 0.748911 23 1.01379V7.01379C22.9981 7.14631 23.0226 7.27787 23.072 7.40084C23.1214 7.52381 23.1948 7.63573 23.2878 7.7301C23.3809 7.82447 23.4918 7.8994 23.614 7.95055C23.7363 8.0017 23.8675 8.02804 24 8.02804C24.1325 8.02804 24.2637 8.0017 24.386 7.95055C24.5082 7.8994 24.6191 7.82447 24.7122 7.7301C24.8052 7.63573 24.8786 7.52381 24.928 7.40084C24.9774 7.27787 25.0019 7.14631 25 7.01379V1.01379C25.0018 0.880004 24.9768 0.747207 24.9264 0.623267C24.876 0.499327 24.8012 0.386764 24.7065 0.292242C24.6118 0.197721 24.4991 0.123164 24.375 0.072987C24.251 0.0228097 24.1182 -0.00196763 23.9844 0.000121978V0.000121978ZM13.8691 3.88293C13.6702 3.88299 13.4758 3.94237 13.3108 4.05348C13.1458 4.16459 13.0177 4.32239 12.9428 4.5067C12.868 4.69102 12.8498 4.89347 12.8906 5.08817C12.9314 5.28287 13.0293 5.46098 13.1719 5.59973L17.4141 9.84192C17.5062 9.93789 17.6166 10.0145 17.7387 10.0673C17.8608 10.1201 17.9923 10.148 18.1253 10.1493C18.2583 10.1507 18.3903 10.1255 18.5135 10.0752C18.6367 10.0249 18.7486 9.95051 18.8426 9.85643C18.9367 9.76236 19.0111 9.65045 19.0614 9.52728C19.1117 9.4041 19.1369 9.27213 19.1355 9.1391C19.1342 9.00606 19.1063 8.87463 19.0535 8.7525C19.0007 8.63037 18.9241 8.52 18.8281 8.42786L14.5859 4.18567C14.4927 4.08987 14.3813 4.01373 14.2582 3.96173C14.1351 3.90974 14.0028 3.88294 13.8691 3.88293V3.88293ZM34.1016 3.88293C33.8418 3.89068 33.5952 3.99925 33.4141 4.18567L29.1719 8.42786C29.0759 8.52 28.9993 8.63037 28.9465 8.7525C28.8937 8.87463 28.8658 9.00606 28.8645 9.1391C28.8631 9.27213 28.8883 9.4041 28.9386 9.52728C28.9889 9.65045 29.0633 9.76236 29.1574 9.85643C29.2514 9.95051 29.3633 10.0249 29.4865 10.0752C29.6097 10.1255 29.7417 10.1507 29.8747 10.1493C30.0077 10.148 30.1392 10.1201 30.2613 10.0673C30.3834 10.0145 30.4938 9.93789 30.5859 9.84192L34.8281 5.59973C34.9726 5.45927 35.0713 5.27843 35.1113 5.08091C35.1512 4.88339 35.1306 4.6784 35.0521 4.49282C34.9735 4.30723 34.8407 4.1497 34.6711 4.04087C34.5015 3.93205 34.303 3.87699 34.1016 3.88293V3.88293ZM24 10.0138C22.4583 10.0138 21.1121 10.6459 20.2539 11.6115C19.3957 12.577 19 13.8055 19 15.0138C19 16.2221 19.3957 17.4506 20.2539 18.4161C21.1121 19.3817 22.4583 20.0138 24 20.0138C25.5417 20.0138 26.8879 19.3817 27.7461 18.4161C28.6043 17.4506 29 16.2221 29 15.0138C29 13.8055 28.6043 12.577 27.7461 11.6115C26.8879 10.6459 25.5417 10.0138 24 10.0138ZM24 13.0138C24.7917 13.0138 25.1955 13.2567 25.5039 13.6036C25.8123 13.9506 26 14.4721 26 15.0138C26 15.5555 25.8123 16.077 25.5039 16.424C25.1955 16.7709 24.7917 17.0138 24 17.0138C23.2083 17.0138 22.8045 16.7709 22.4961 16.424C22.1877 16.077 22 15.5555 22 15.0138C22 14.4721 22.1877 13.9506 22.4961 13.6036C22.8045 13.2567 23.2083 13.0138 24 13.0138ZM9 16.0138C7.45833 16.0138 6.11215 16.6459 5.25391 17.6115C4.39566 18.577 4 19.8055 4 21.0138C4 22.2221 4.39566 23.4506 5.25391 24.4161C6.11215 25.3817 7.45833 26.0138 9 26.0138C10.5417 26.0138 11.8879 25.3817 12.7461 24.4161C13.6043 23.4506 14 22.2221 14 21.0138C14 19.8055 13.6043 18.577 12.7461 17.6115C11.8879 16.6459 10.5417 16.0138 9 16.0138ZM39 16.0138C37.4583 16.0138 36.1121 16.6459 35.2539 17.6115C34.3957 18.577 34 19.8055 34 21.0138C34 22.2221 34.3957 23.4506 35.2539 24.4161C36.1121 25.3817 37.4583 26.0138 39 26.0138C40.5417 26.0138 41.8879 25.3817 42.7461 24.4161C43.6043 23.4506 44 22.2221 44 21.0138C44 19.8055 43.6043 18.577 42.7461 17.6115C41.8879 16.6459 40.5417 16.0138 39 16.0138ZM9 19.0138C9.79167 19.0138 10.1955 19.2567 10.5039 19.6036C10.8123 19.9506 11 20.4721 11 21.0138C11 21.5555 10.8123 22.077 10.5039 22.424C10.1955 22.7709 9.79167 23.0138 9 23.0138C8.20833 23.0138 7.80452 22.7709 7.49609 22.424C7.18767 22.077 7 21.5555 7 21.0138C7 20.4721 7.18767 19.9506 7.49609 19.6036C7.80452 19.2567 8.20833 19.0138 9 19.0138ZM39 19.0138C39.7917 19.0138 40.1955 19.2567 40.5039 19.6036C40.8123 19.9506 41 20.4721 41 21.0138C41 21.5555 40.8123 22.077 40.5039 22.424C40.1955 22.7709 39.7917 23.0138 39 23.0138C38.2083 23.0138 37.8045 22.7709 37.4961 22.424C37.1877 22.077 37 21.5555 37 21.0138C37 20.4721 37.1877 19.9506 37.4961 19.6036C37.8045 19.2567 38.2083 19.0138 39 19.0138ZM18.0527 22.0138C16.3848 22.0138 15 23.3986 15 25.0665V28.0353C14.9797 28.0349 14.9676 28.0138 14.9473 28.0138H3.05273C1.38477 28.0138 0 29.3986 0 31.0665V32.963C0 34.7919 1.1549 36.3668 2.76953 37.3966C4.38416 38.4265 6.52628 39.0157 9 39.0157C11.4736 39.0157 13.6138 38.4263 15.2285 37.3966C15.7438 37.068 16.1008 36.6042 16.5 36.174C16.8989 36.6037 17.2547 37.0682 17.7695 37.3966C19.3842 38.4265 21.5263 39.0157 24 39.0157C26.4736 39.0157 28.6138 38.4263 30.2285 37.3966C30.7438 37.068 31.1008 36.6042 31.5 36.174C31.8989 36.6037 32.2547 37.0682 32.7695 37.3966C34.3842 38.4265 36.5263 39.0157 39 39.0157C41.4736 39.0157 43.6138 38.4263 45.2285 37.3966C46.8432 36.3669 48 34.7922 48 32.963V31.0665C48 29.3986 46.6152 28.0138 44.9473 28.0138H33.0527C33.0324 28.0138 33.0203 28.0349 33 28.0353V25.0665C33 23.3986 31.6152 22.0138 29.9473 22.0138H18.0527ZM18.0527 25.0138H29.9473C29.9933 25.0138 30 25.0205 30 25.0665V31.0665V32.963C30 33.5169 29.6372 34.2168 28.6172 34.8673C27.5971 35.5178 25.9874 36.0157 24 36.0157C22.0127 36.0157 20.4029 35.518 19.3828 34.8673C18.3627 34.2167 18 33.5161 18 32.963V31.0665V25.0665C18 25.0205 18.0067 25.0138 18.0527 25.0138ZM3.05273 31.0138H14.9473C14.9933 31.0138 15 31.0205 15 31.0665V32.963C15 33.5169 14.6372 34.2168 13.6172 34.8673C12.5971 35.5178 10.9874 36.0157 9 36.0157C7.01272 36.0157 5.40294 35.518 4.38281 34.8673C3.36269 34.2167 3 33.5161 3 32.963V31.0665C3 31.0205 3.0067 31.0138 3.05273 31.0138ZM33.0527 31.0138H44.9473C44.9933 31.0138 45 31.0205 45 31.0665V32.963C45 33.5169 44.6372 34.2168 43.6172 34.8673C42.5971 35.5178 40.9874 36.0157 39 36.0157C37.0127 36.0157 35.4029 35.518 34.3828 34.8673C33.3627 34.2167 33 33.5161 33 32.963V31.0665C33 31.0205 33.0067 31.0138 33.0527 31.0138Z" fill="white"/>
</svg>
