<svg width="263" height="98" viewBox="0 0 263 98" fill="none" xmlns="http://www.w3.org/2000/svg">
<rect x="263" y="98" width="259" height="95" rx="10" transform="rotate(-180 263 98)" fill="black"/>
<rect x="1" y="1" width="256" height="89.5484" rx="8" fill="white" stroke="black" stroke-width="2"/>
<rect x="13.6182" y="11.3492" width="231.519" height="45.3959" rx="5.43076" fill="#F3F3F3"/>
<path d="M51.0797 40.6055C50.9731 40.6055 50.9197 40.5521 50.9197 40.4455V29.5655C50.9197 29.4588 50.9731 29.4055 51.0797 29.4055H52.5517C52.6797 29.4055 52.7651 29.4588 52.8077 29.5655L55.9597 36.7975L59.1117 29.5655C59.1544 29.4588 59.2397 29.4055 59.3677 29.4055H60.8397C60.9464 29.4055 60.9997 29.4588 60.9997 29.5655V40.4455C60.9997 40.5521 60.9464 40.6055 60.8397 40.6055H59.8477C59.7411 40.6055 59.6877 40.5521 59.6877 40.4455V31.4375L56.5197 38.5895C56.4771 38.6855 56.4077 38.7335 56.3117 38.7335H55.6077C55.5117 38.7335 55.4424 38.6855 55.3997 38.5895L52.2317 31.4375V40.4455C52.2317 40.5521 52.1784 40.6055 52.0717 40.6055H51.0797ZM66.0023 40.7655C65.5223 40.7655 65.0583 40.6695 64.6103 40.4775C64.173 40.2855 63.8157 39.9975 63.5383 39.6135C63.261 39.2295 63.1223 38.7655 63.1223 38.2215C63.1223 37.3681 63.4263 36.7121 64.0343 36.2535C64.6423 35.7841 65.421 35.5495 66.3703 35.5495C67.053 35.5495 67.805 35.6668 68.6263 35.9015V35.4535C68.6263 34.8561 68.4557 34.3975 68.1143 34.0775C67.7837 33.7575 67.309 33.5975 66.6903 33.5975C66.221 33.5975 65.8263 33.7041 65.5063 33.9175C65.1863 34.1308 64.9517 34.4295 64.8023 34.8135C64.7703 34.9095 64.6957 34.9575 64.5783 34.9575H63.5543C63.4797 34.9575 63.4423 34.9255 63.4423 34.8615C63.4423 34.7975 63.4477 34.7441 63.4583 34.7015C63.6183 34.0401 63.9757 33.4961 64.5303 33.0695C65.085 32.6321 65.805 32.4135 66.6903 32.4135C67.309 32.4135 67.8583 32.5308 68.3383 32.7655C68.8183 33.0001 69.1917 33.3308 69.4583 33.7575C69.7357 34.1735 69.8743 34.6588 69.8743 35.2135V39.0695C69.8743 39.4321 69.8903 39.6988 69.9223 39.8695C69.965 40.0401 70.0397 40.2321 70.1463 40.4455C70.1677 40.4881 70.1783 40.5201 70.1783 40.5415C70.1783 40.5841 70.1357 40.6055 70.0503 40.6055H68.7863C68.6797 40.6055 68.6263 40.5521 68.6263 40.4455V39.6135C68.3703 39.9655 68.0077 40.2481 67.5383 40.4615C67.0797 40.6641 66.5677 40.7655 66.0023 40.7655ZM66.1463 39.5815C66.8503 39.5815 67.437 39.3628 67.9063 38.9255C68.3863 38.4775 68.6263 37.8641 68.6263 37.0855C67.9437 36.8508 67.2183 36.7335 66.4503 36.7335C65.8423 36.7335 65.3517 36.8508 64.9783 37.0855C64.6157 37.3201 64.4343 37.6721 64.4343 38.1415C64.4343 38.6001 64.5837 38.9575 64.8823 39.2135C65.181 39.4588 65.6023 39.5815 66.1463 39.5815ZM72.3248 40.6055C72.2182 40.6055 72.1648 40.5521 72.1648 40.4455V32.7335C72.1648 32.6268 72.2182 32.5735 72.3248 32.5735H73.2528C73.3595 32.5735 73.4128 32.6268 73.4128 32.7335V33.6135C73.6795 33.2508 74.0048 32.9628 74.3888 32.7495C74.7835 32.5255 75.2368 32.4135 75.7488 32.4135C76.1648 32.4135 76.6075 32.4988 77.0768 32.6695C77.1408 32.6908 77.1888 32.7228 77.2208 32.7655C77.2528 32.8081 77.2688 32.8721 77.2688 32.9575V33.9655C77.2688 34.0615 77.2368 34.1095 77.1728 34.1095C77.1302 34.1095 77.0768 34.0935 77.0128 34.0615C76.6822 33.8908 76.3995 33.7735 76.1648 33.7095C75.9302 33.6348 75.6635 33.5975 75.3648 33.5975C74.7995 33.5975 74.3302 33.8375 73.9568 34.3175C73.5942 34.7868 73.4128 35.3788 73.4128 36.0935V40.4455C73.4128 40.5521 73.3595 40.6055 73.2528 40.6055H72.3248ZM78.9186 40.6055C78.8119 40.6055 78.7586 40.5521 78.7586 40.4455V29.5655C78.7586 29.4588 78.8119 29.4055 78.9186 29.4055H79.8466C79.9533 29.4055 80.0066 29.4588 80.0066 29.5655V35.9975L83.5106 32.7175C83.6066 32.6215 83.7026 32.5735 83.7986 32.5735H85.0946C85.1799 32.5735 85.2226 32.6108 85.2226 32.6855C85.2226 32.7281 85.2013 32.7708 85.1586 32.8135L82.3106 35.4695L85.5106 40.3175C85.5533 40.3815 85.5746 40.4348 85.5746 40.4775C85.5746 40.5628 85.5266 40.6055 85.4306 40.6055H84.3106C84.2039 40.6055 84.1186 40.5575 84.0546 40.4615L81.3346 36.3815L80.0066 37.6455V40.4455C80.0066 40.5521 79.9533 40.6055 79.8466 40.6055H78.9186ZM90.279 40.7655C89.479 40.7655 88.775 40.5841 88.167 40.2215C87.5696 39.8588 87.1056 39.3628 86.775 38.7335C86.4443 38.0935 86.279 37.3788 86.279 36.5895C86.279 35.8108 86.4496 35.1068 86.791 34.4775C87.143 33.8375 87.623 33.3361 88.231 32.9735C88.839 32.6001 89.5216 32.4135 90.279 32.4135C91.0683 32.4135 91.7563 32.6001 92.343 32.9735C92.9403 33.3468 93.399 33.8535 93.719 34.4935C94.039 35.1228 94.199 35.8108 94.199 36.5575V36.8135C94.199 36.9201 94.1456 36.9735 94.039 36.9735H87.623C87.687 37.7628 87.9536 38.3975 88.423 38.8775C88.903 39.3468 89.5323 39.5815 90.311 39.5815C91.4736 39.5815 92.2576 39.0908 92.663 38.1095C92.6843 38.0455 92.711 38.0081 92.743 37.9975C92.775 37.9761 92.823 37.9655 92.887 37.9655H93.927C94.0016 37.9655 94.039 38.0028 94.039 38.0775C94.039 38.1201 94.0283 38.1735 94.007 38.2375C93.7083 39.0695 93.239 39.6988 92.599 40.1255C91.959 40.5521 91.1856 40.7655 90.279 40.7655ZM92.855 35.7895C92.727 35.1281 92.4283 34.6001 91.959 34.2055C91.4896 33.8001 90.9296 33.5975 90.279 33.5975C89.639 33.5975 89.079 33.7895 88.599 34.1735C88.1296 34.5468 87.8256 35.0855 87.687 35.7895H92.855ZM99.0646 40.7655C98.3073 40.7655 97.7153 40.5521 97.2886 40.1255C96.8619 39.6881 96.6486 39.0908 96.6486 38.3335V33.7575H95.2246C95.1179 33.7575 95.0646 33.7041 95.0646 33.5975V32.7335C95.0646 32.6268 95.1179 32.5735 95.2246 32.5735H96.6486V30.2695C96.6486 30.1628 96.7019 30.1095 96.8086 30.1095H97.7366C97.8433 30.1095 97.8966 30.1628 97.8966 30.2695V32.5735H100.553C100.659 32.5735 100.713 32.6268 100.713 32.7335V33.5975C100.713 33.7041 100.659 33.7575 100.553 33.7575H97.8966V38.2215C97.8966 39.1281 98.3179 39.5815 99.1606 39.5815C99.4593 39.5815 99.7153 39.5655 99.9286 39.5335C100.153 39.5015 100.387 39.4428 100.633 39.3575C100.707 39.3255 100.761 39.3095 100.793 39.3095C100.867 39.3095 100.905 39.3575 100.905 39.4535V40.2535C100.905 40.3281 100.894 40.3815 100.873 40.4135C100.862 40.4455 100.83 40.4721 100.777 40.4935C100.297 40.6748 99.7259 40.7655 99.0646 40.7655ZM102.634 31.1015C102.527 31.1015 102.474 31.0481 102.474 30.9415V29.5655C102.474 29.4588 102.527 29.4055 102.634 29.4055H104.01C104.117 29.4055 104.17 29.4588 104.17 29.5655V30.9415C104.17 31.0481 104.117 31.1015 104.01 31.1015H102.634ZM102.858 40.6055C102.751 40.6055 102.698 40.5521 102.698 40.4455V32.7335C102.698 32.6268 102.751 32.5735 102.858 32.5735H103.786C103.893 32.5735 103.946 32.6268 103.946 32.7335V40.4455C103.946 40.5521 103.893 40.6055 103.786 40.6055H102.858ZM106.59 40.6055C106.484 40.6055 106.43 40.5521 106.43 40.4455V32.7335C106.43 32.6268 106.484 32.5735 106.59 32.5735H107.518C107.625 32.5735 107.678 32.6268 107.678 32.7335V33.6455C108.361 32.8241 109.246 32.4135 110.334 32.4135C111.188 32.4135 111.865 32.6695 112.366 33.1815C112.868 33.6935 113.118 34.4081 113.118 35.3255V40.4455C113.118 40.5521 113.065 40.6055 112.958 40.6055H112.03C111.924 40.6055 111.87 40.5521 111.87 40.4455V35.5175C111.87 34.8775 111.71 34.3975 111.39 34.0775C111.081 33.7575 110.633 33.5975 110.046 33.5975C109.342 33.5975 108.772 33.8481 108.334 34.3495C107.897 34.8508 107.678 35.5708 107.678 36.5095V40.4455C107.678 40.5521 107.625 40.6055 107.518 40.6055H106.59ZM118.98 43.9335C118.031 43.9335 117.231 43.6988 116.58 43.2295C115.93 42.7708 115.578 42.1361 115.524 41.3255C115.524 41.2188 115.578 41.1655 115.684 41.1655H116.612C116.666 41.1655 116.703 41.1761 116.724 41.1975C116.746 41.2188 116.767 41.2615 116.788 41.3255C116.884 41.7948 117.103 42.1468 117.444 42.3815C117.796 42.6268 118.308 42.7495 118.98 42.7495C119.738 42.7495 120.298 42.5201 120.66 42.0615C121.023 41.6028 121.204 40.9681 121.204 40.1575V39.5815C120.831 39.9121 120.442 40.1628 120.036 40.3335C119.631 40.4935 119.167 40.5735 118.644 40.5735C117.972 40.5735 117.364 40.4081 116.82 40.0775C116.276 39.7361 115.844 39.2561 115.524 38.6375C115.215 38.0188 115.06 37.3041 115.06 36.4935C115.06 35.6828 115.21 34.9681 115.508 34.3495C115.818 33.7308 116.244 33.2561 116.788 32.9255C117.332 32.5841 117.951 32.4135 118.644 32.4135C119.178 32.4135 119.663 32.5095 120.1 32.7015C120.538 32.8828 120.906 33.1335 121.204 33.4535V32.7335C121.204 32.6268 121.258 32.5735 121.364 32.5735H122.292C122.399 32.5735 122.452 32.6268 122.452 32.7335V40.1255C122.452 41.3415 122.159 42.2801 121.572 42.9415C120.986 43.6028 120.122 43.9335 118.98 43.9335ZM118.852 39.3895C119.61 39.3895 120.212 39.1281 120.66 38.6055C121.108 38.0721 121.332 37.3681 121.332 36.4935C121.332 35.6188 121.108 34.9201 120.66 34.3975C120.212 33.8641 119.61 33.5975 118.852 33.5975C118.063 33.5975 117.45 33.8588 117.012 34.3815C116.586 34.9041 116.372 35.6081 116.372 36.4935C116.372 37.3788 116.586 38.0828 117.012 38.6055C117.45 39.1281 118.063 39.3895 118.852 39.3895ZM124.852 36.2375C124.746 36.2375 124.692 36.1841 124.692 36.0775V35.1495C124.692 35.0428 124.746 34.9895 124.852 34.9895H130.356C130.463 34.9895 130.516 35.0428 130.516 35.1495V36.0775C130.516 36.1841 130.463 36.2375 130.356 36.2375H124.852ZM136.631 40.7655C136.108 40.7655 135.612 40.6695 135.143 40.4775C134.684 40.2748 134.305 40.0135 134.007 39.6935V40.4455C134.007 40.5521 133.953 40.6055 133.847 40.6055H132.919C132.812 40.6055 132.759 40.5521 132.759 40.4455V29.5655C132.759 29.4588 132.812 29.4055 132.919 29.4055H133.847C133.953 29.4055 134.007 29.4588 134.007 29.5655V33.5015C134.348 33.1708 134.737 32.9095 135.175 32.7175C135.623 32.5148 136.108 32.4135 136.631 32.4135C137.335 32.4135 137.953 32.5895 138.487 32.9415C139.031 33.2935 139.452 33.7841 139.751 34.4135C140.049 35.0428 140.199 35.7681 140.199 36.5895C140.199 37.4108 140.049 38.1361 139.751 38.7655C139.452 39.3948 139.031 39.8855 138.487 40.2375C137.953 40.5895 137.335 40.7655 136.631 40.7655ZM136.423 39.5815C137.212 39.5815 137.82 39.3095 138.247 38.7655C138.673 38.2215 138.887 37.4961 138.887 36.5895C138.887 35.6828 138.673 34.9575 138.247 34.4135C137.82 33.8695 137.212 33.5975 136.423 33.5975C135.644 33.5975 135.025 33.8748 134.567 34.4295C134.108 34.9841 133.879 35.7041 133.879 36.5895C133.879 37.4748 134.108 38.1948 134.567 38.7495C135.025 39.3041 135.644 39.5815 136.423 39.5815ZM144.918 40.7655C144.064 40.7655 143.387 40.5095 142.886 39.9975C142.384 39.4855 142.134 38.7708 142.134 37.8535V32.7335C142.134 32.6268 142.187 32.5735 142.294 32.5735H143.222C143.328 32.5735 143.382 32.6268 143.382 32.7335V37.6615C143.382 38.3015 143.536 38.7815 143.846 39.1015C144.166 39.4215 144.619 39.5815 145.206 39.5815C145.91 39.5815 146.48 39.3308 146.918 38.8295C147.355 38.3281 147.574 37.6081 147.574 36.6695V32.7335C147.574 32.6268 147.627 32.5735 147.734 32.5735H148.662C148.768 32.5735 148.822 32.6268 148.822 32.7335V40.4455C148.822 40.5521 148.768 40.6055 148.662 40.6055H147.734C147.627 40.6055 147.574 40.5521 147.574 40.4455V39.5335C147.254 39.9281 146.87 40.2321 146.422 40.4455C145.974 40.6588 145.472 40.7655 144.918 40.7655ZM154.331 40.7655C153.627 40.7655 153.003 40.5895 152.459 40.2375C151.926 39.8855 151.51 39.3948 151.211 38.7655C150.913 38.1361 150.763 37.4108 150.763 36.5895C150.763 35.7681 150.913 35.0428 151.211 34.4135C151.51 33.7841 151.926 33.2935 152.459 32.9415C153.003 32.5895 153.627 32.4135 154.331 32.4135C154.854 32.4135 155.334 32.5148 155.771 32.7175C156.219 32.9095 156.614 33.1708 156.955 33.5015V29.5655C156.955 29.4588 157.009 29.4055 157.115 29.4055H158.043C158.15 29.4055 158.203 29.4588 158.203 29.5655V40.4455C158.203 40.5521 158.15 40.6055 158.043 40.6055H157.115C157.009 40.6055 156.955 40.5521 156.955 40.4455V39.6935C156.657 40.0135 156.273 40.2748 155.803 40.4775C155.345 40.6695 154.854 40.7655 154.331 40.7655ZM154.539 39.5815C155.318 39.5815 155.937 39.3041 156.395 38.7495C156.854 38.1948 157.083 37.4748 157.083 36.5895C157.083 35.7041 156.854 34.9841 156.395 34.4295C155.937 33.8748 155.318 33.5975 154.539 33.5975C153.75 33.5975 153.142 33.8695 152.715 34.4135C152.289 34.9575 152.075 35.6828 152.075 36.5895C152.075 37.4961 152.289 38.2215 152.715 38.7655C153.142 39.3095 153.75 39.5815 154.539 39.5815ZM164.058 43.9335C163.109 43.9335 162.309 43.6988 161.658 43.2295C161.008 42.7708 160.656 42.1361 160.602 41.3255C160.602 41.2188 160.656 41.1655 160.762 41.1655H161.69C161.744 41.1655 161.781 41.1761 161.802 41.1975C161.824 41.2188 161.845 41.2615 161.866 41.3255C161.962 41.7948 162.181 42.1468 162.522 42.3815C162.874 42.6268 163.386 42.7495 164.058 42.7495C164.816 42.7495 165.376 42.5201 165.738 42.0615C166.101 41.6028 166.282 40.9681 166.282 40.1575V39.5815C165.909 39.9121 165.52 40.1628 165.114 40.3335C164.709 40.4935 164.245 40.5735 163.722 40.5735C163.05 40.5735 162.442 40.4081 161.898 40.0775C161.354 39.7361 160.922 39.2561 160.602 38.6375C160.293 38.0188 160.138 37.3041 160.138 36.4935C160.138 35.6828 160.288 34.9681 160.586 34.3495C160.896 33.7308 161.322 33.2561 161.866 32.9255C162.41 32.5841 163.029 32.4135 163.722 32.4135C164.256 32.4135 164.741 32.5095 165.178 32.7015C165.616 32.8828 165.984 33.1335 166.282 33.4535V32.7335C166.282 32.6268 166.336 32.5735 166.442 32.5735H167.37C167.477 32.5735 167.53 32.6268 167.53 32.7335V40.1255C167.53 41.3415 167.237 42.2801 166.65 42.9415C166.064 43.6028 165.2 43.9335 164.058 43.9335ZM163.93 39.3895C164.688 39.3895 165.29 39.1281 165.738 38.6055C166.186 38.0721 166.41 37.3681 166.41 36.4935C166.41 35.6188 166.186 34.9201 165.738 34.3975C165.29 33.8641 164.688 33.5975 163.93 33.5975C163.141 33.5975 162.528 33.8588 162.09 34.3815C161.664 34.9041 161.45 35.6081 161.45 36.4935C161.45 37.3788 161.664 38.0828 162.09 38.6055C162.528 39.1281 163.141 39.3895 163.93 39.3895ZM173.466 40.7655C172.666 40.7655 171.962 40.5841 171.354 40.2215C170.757 39.8588 170.293 39.3628 169.962 38.7335C169.632 38.0935 169.466 37.3788 169.466 36.5895C169.466 35.8108 169.637 35.1068 169.978 34.4775C170.33 33.8375 170.81 33.3361 171.418 32.9735C172.026 32.6001 172.709 32.4135 173.466 32.4135C174.256 32.4135 174.944 32.6001 175.53 32.9735C176.128 33.3468 176.586 33.8535 176.906 34.4935C177.226 35.1228 177.386 35.8108 177.386 36.5575V36.8135C177.386 36.9201 177.333 36.9735 177.226 36.9735H170.81C170.874 37.7628 171.141 38.3975 171.61 38.8775C172.09 39.3468 172.72 39.5815 173.498 39.5815C174.661 39.5815 175.445 39.0908 175.85 38.1095C175.872 38.0455 175.898 38.0081 175.93 37.9975C175.962 37.9761 176.01 37.9655 176.074 37.9655H177.114C177.189 37.9655 177.226 38.0028 177.226 38.0775C177.226 38.1201 177.216 38.1735 177.194 38.2375C176.896 39.0695 176.426 39.6988 175.786 40.1255C175.146 40.5521 174.373 40.7655 173.466 40.7655ZM176.042 35.7895C175.914 35.1281 175.616 34.6001 175.146 34.2055C174.677 33.8001 174.117 33.5975 173.466 33.5975C172.826 33.5975 172.266 33.7895 171.786 34.1735C171.317 34.5468 171.013 35.0855 170.874 35.7895H176.042ZM182.252 40.7655C181.495 40.7655 180.903 40.5521 180.476 40.1255C180.049 39.6881 179.836 39.0908 179.836 38.3335V33.7575H178.412C178.305 33.7575 178.252 33.7041 178.252 33.5975V32.7335C178.252 32.6268 178.305 32.5735 178.412 32.5735H179.836V30.2695C179.836 30.1628 179.889 30.1095 179.996 30.1095H180.924C181.031 30.1095 181.084 30.1628 181.084 30.2695V32.5735H183.74C183.847 32.5735 183.9 32.6268 183.9 32.7335V33.5975C183.9 33.7041 183.847 33.7575 183.74 33.7575H181.084V38.2215C181.084 39.1281 181.505 39.5815 182.348 39.5815C182.647 39.5815 182.903 39.5655 183.116 39.5335C183.34 39.5015 183.575 39.4428 183.82 39.3575C183.895 39.3255 183.948 39.3095 183.98 39.3095C184.055 39.3095 184.092 39.3575 184.092 39.4535V40.2535C184.092 40.3281 184.081 40.3815 184.06 40.4135C184.049 40.4455 184.017 40.4721 183.964 40.4935C183.484 40.6748 182.913 40.7655 182.252 40.7655Z" fill="#364962" fill-opacity="0.5"/>
<path d="M209.491 40.374C208.883 40.374 208.338 40.2514 207.857 40.0063C207.385 39.7521 207.008 39.4025 206.727 38.9576C206.445 38.5127 206.282 37.9998 206.237 37.4187V37.3915C206.237 37.2644 206.296 37.2008 206.414 37.2008H207.149C207.213 37.2008 207.258 37.2144 207.285 37.2417C207.312 37.2598 207.331 37.3052 207.34 37.3779C207.403 37.968 207.626 38.4401 208.007 38.7942C208.397 39.1392 208.892 39.3117 209.491 39.3117C210.145 39.3117 210.667 39.1528 211.058 38.8351C211.448 38.5173 211.643 38.0452 211.643 37.4187C211.643 36.8649 211.462 36.4382 211.098 36.1385C210.744 35.8389 210.24 35.6891 209.587 35.6891H208.77C208.679 35.6891 208.633 35.6437 208.633 35.5529V34.763C208.633 34.6723 208.679 34.6269 208.77 34.6269H209.478C210.041 34.6269 210.476 34.4952 210.785 34.2319C211.103 33.9686 211.262 33.5782 211.262 33.0607C211.262 32.6249 211.085 32.2799 210.731 32.0257C210.386 31.7624 209.964 31.6307 209.464 31.6307C208.974 31.6307 208.561 31.7715 208.225 32.0529C207.889 32.3253 207.703 32.7021 207.666 33.1833C207.657 33.2559 207.639 33.3013 207.612 33.3195C207.594 33.3376 207.553 33.3467 207.489 33.3467H206.768C206.622 33.3467 206.554 33.265 206.563 33.1016C206.6 32.6022 206.749 32.1619 207.013 31.7805C207.285 31.3901 207.635 31.0905 208.061 30.8817C208.488 30.6729 208.956 30.5685 209.464 30.5685C210.018 30.5685 210.513 30.6729 210.949 30.8817C211.384 31.0814 211.72 31.3584 211.956 31.7124C212.202 32.0665 212.324 32.4706 212.324 32.9245C212.324 33.4511 212.229 33.8824 212.038 34.2183C211.847 34.5542 211.552 34.8448 211.153 35.0899C212.224 35.5075 212.76 36.2974 212.76 37.4596C212.76 38.0588 212.619 38.5808 212.338 39.0257C212.065 39.4615 211.679 39.7975 211.18 40.0335C210.69 40.2605 210.127 40.374 209.491 40.374ZM216.05 40.2378C215.959 40.2378 215.914 40.1924 215.914 40.1016V32.2163L214.089 33.2105C214.035 33.2377 213.985 33.2514 213.939 33.2514C213.876 33.2514 213.844 33.2105 213.844 33.1288V32.1891C213.844 32.0983 213.894 32.0302 213.994 31.9848L216.2 30.7727C216.273 30.7274 216.341 30.7047 216.404 30.7047H216.894C216.985 30.7047 217.031 30.7501 217.031 30.8408V40.1016C217.031 40.1924 216.985 40.2378 216.894 40.2378H216.05ZM219.652 40.2378C219.561 40.2378 219.515 40.1924 219.515 40.1016V30.8408C219.515 30.7501 219.561 30.7047 219.652 30.7047H220.523C220.614 30.7047 220.659 30.7501 220.659 30.8408V34.9401L224.513 30.8408C224.604 30.7501 224.686 30.7047 224.759 30.7047H225.875C225.939 30.7047 225.975 30.7274 225.984 30.7727C226.002 30.8091 225.993 30.8499 225.957 30.8953L222.866 34.2183L226.57 40.0471C226.588 40.0834 226.597 40.1107 226.597 40.1288C226.597 40.2015 226.556 40.2378 226.475 40.2378H225.385C225.331 40.2378 225.285 40.2242 225.249 40.1969C225.222 40.1606 225.181 40.1061 225.126 40.0335L221.98 35.158L220.659 36.588V40.1016C220.659 40.1924 220.614 40.2378 220.523 40.2378H219.652ZM228.097 40.2378C228.006 40.2378 227.961 40.1924 227.961 40.1016V30.8408C227.961 30.7501 228.006 30.7047 228.097 30.7047H231.379C232.169 30.7047 232.836 30.9089 233.381 31.3175C233.926 31.717 234.198 32.3071 234.198 33.0879C234.198 33.5601 234.103 33.9686 233.912 34.3136C233.721 34.6496 233.44 34.9356 233.068 35.1716C233.549 35.3895 233.926 35.6846 234.198 36.0568C234.47 36.4291 234.607 36.9194 234.607 37.5277C234.607 38.3448 234.343 39.003 233.817 39.5024C233.299 39.9927 232.618 40.2378 231.774 40.2378H228.097ZM231.529 34.6813C231.983 34.6813 232.35 34.5678 232.632 34.3409C232.913 34.1048 233.054 33.7416 233.054 33.2514C233.054 32.7974 232.909 32.4433 232.618 32.1891C232.328 31.9258 231.964 31.7942 231.529 31.7942H229.105V34.6813H231.529ZM231.583 39.1483C232.173 39.1483 232.632 39.0076 232.959 38.7261C233.295 38.4447 233.463 38.0179 233.463 37.4459C233.463 36.8921 233.295 36.4745 232.959 36.193C232.632 35.9116 232.173 35.7708 231.583 35.7708H229.105V39.1483H231.583Z" fill="#BBBBBB"/>
<rect x="14.3748" y="62.7975" width="230.006" height="15.132" rx="5.29619" fill="white" stroke="#3F40F2" stroke-width="1.5132"/>
<rect x="13.6182" y="62.7972" width="178.073" height="14.3754" rx="6.05279" fill="#3F40F2"/>
<rect x="181.006" y="62.797" width="18.9944" height="14.3754" fill="#3F40F2"/>
<path d="M121.216 73.8242H122.296C122.75 72.0447 123.613 70.247 124.92 68.4675V67.4688H120.589V68.4221H123.849V68.4584C122.532 70.2107 121.679 71.9811 121.216 73.7334V73.8242ZM126.128 73.8242H127.208C127.662 72.0447 128.525 70.247 129.832 68.4675V67.4688H125.501V68.4221H128.761V68.4584C127.444 70.2107 126.591 71.9811 126.128 73.7334V73.8242ZM132.057 70.6647C133.001 70.6647 133.464 69.9656 133.464 69.0123C133.464 68.0589 132.992 67.3598 132.057 67.3598C131.112 67.3598 130.64 68.0589 130.64 69.0123C130.64 69.9656 131.112 70.6647 132.057 70.6647ZM131.358 73.8242H132.275L136.56 67.5596V67.4688H135.661L131.358 73.7334V73.8242ZM132.057 69.9474C131.621 69.9474 131.412 69.6296 131.412 69.0123C131.412 68.3949 131.621 68.0771 132.057 68.0771C132.492 68.0771 132.692 68.3949 132.692 69.0123C132.692 69.6296 132.492 69.9474 132.057 69.9474ZM135.906 73.9059C136.85 73.9059 137.323 73.2068 137.323 72.2535C137.323 71.3002 136.841 70.6011 135.906 70.6011C134.962 70.6011 134.49 71.3002 134.49 72.2535C134.49 73.2068 134.962 73.9059 135.906 73.9059ZM135.906 73.1887C135.47 73.1887 135.271 72.8709 135.271 72.2535C135.271 71.6361 135.47 71.3184 135.906 71.3184C136.342 71.3184 136.542 71.6361 136.542 72.2535C136.542 72.8709 136.342 73.1887 135.906 73.1887Z" fill="white"/>
<path d="M28.1094 25C26.9527 25 26 25.9146 26 27.025V40.975C26 42.0854 26.9527 43 28.1094 43H38.8906C40.0473 43 41 42.0854 41 40.975V31.525C41 31.346 40.9259 31.1743 40.794 31.0478L40.7867 31.0407L34.7003 25.1978C34.5684 25.0712 34.3896 25 34.2031 25H28.1094ZM28.1094 26.35H33.5V30.175C33.5 31.2854 34.4527 32.2 35.6094 32.2H39.5937V40.975C39.5937 41.3559 39.2874 41.65 38.8906 41.65H28.1094C27.7126 41.65 27.4062 41.3559 27.4062 40.975V27.025C27.4062 26.6441 27.7126 26.35 28.1094 26.35ZM34.9062 27.3045L38.5995 30.85H35.6094C35.2126 30.85 34.9062 30.5559 34.9062 30.175V27.3045ZM32.7969 32.65C32.1551 32.65 31.625 33.1589 31.625 33.775C31.625 34.5591 32.0417 35.407 32.5872 36.2192C32.4455 36.661 32.2916 37.0934 32.1111 37.4831C32.1068 37.4847 32.1008 37.4859 32.0965 37.4875C30.9102 37.9237 30.0747 38.4253 29.6356 38.819C29.3872 39.0424 29.2812 39.3452 29.2812 39.625C29.2812 39.9119 29.3975 40.2024 29.6246 40.4204C29.8517 40.6384 30.1543 40.75 30.4531 40.75C30.778 40.75 31.0451 40.6084 31.246 40.4521C31.4925 40.2598 31.7331 39.9673 32.0178 39.5573C32.2652 39.201 32.529 38.7319 32.7831 38.2311C33.1886 38.0955 33.6186 37.969 34.0951 37.8689C34.8356 38.4701 35.6461 38.95 36.5469 38.95C37.1886 38.95 37.7187 38.4411 37.7187 37.825C37.7187 37.2089 37.1886 36.7 36.5469 36.7C35.7682 36.7 35.0507 36.7889 34.3698 36.9057C34.2108 36.7601 34.0328 36.6638 33.8873 36.4987C33.7785 36.3753 33.7226 36.2339 33.6245 36.1032C33.8314 35.3624 33.9687 34.5782 33.9687 33.775C33.9687 33.1589 33.4386 32.65 32.7969 32.65ZM32.7969 33.55C32.9314 33.55 33.0312 33.6459 33.0312 33.775C33.0312 34.1434 32.9327 34.5045 32.8747 34.871C32.7005 34.4641 32.5625 34.0651 32.5625 33.775C32.5625 33.6459 32.6624 33.55 32.7969 33.55ZM33.2363 37.1359C33.2459 37.1466 33.2587 37.1534 33.2684 37.1641C33.2522 37.1684 33.2369 37.1729 33.2208 37.1772C33.2262 37.1636 33.231 37.1496 33.2363 37.1359ZM36.5469 37.6C36.6814 37.6 36.7812 37.6959 36.7812 37.825C36.7812 37.9541 36.6814 38.05 36.5469 38.05C36.218 38.05 35.8457 37.8824 35.4775 37.7011C35.8359 37.6676 36.1648 37.6 36.5469 37.6ZM31.3815 38.8076C31.3342 38.8803 31.2824 38.9925 31.2368 39.0581C30.9815 39.4258 30.738 39.6882 30.6545 39.7533C30.5545 39.8308 30.4881 39.85 30.4531 39.85C30.3919 39.85 30.335 39.8298 30.2874 39.7841C30.2398 39.7384 30.2187 39.6837 30.2187 39.625C30.2187 39.5597 30.2412 39.5078 30.2755 39.4765C30.4483 39.3217 30.8667 39.0709 31.3815 38.8076Z" fill="#3F40F2"/>
</svg>
