<svg width="39" height="39" viewBox="0 0 39 39" fill="none" xmlns="http://www.w3.org/2000/svg">
<path d="M6.01318 0C4.08018 0 2.51318 1.567 2.51318 3.5C2.51318 5.433 4.08018 7 6.01318 7C7.94618 7 9.51318 5.433 9.51318 3.5C9.51318 1.567 7.94618 0 6.01318 0ZM32.0132 0C30.0802 0 28.5132 1.567 28.5132 3.5C28.5132 5.433 30.0802 7 32.0132 7C33.9462 7 35.5132 5.433 35.5132 3.5C35.5132 1.567 33.9462 0 32.0132 0ZM19.0132 6C11.8512 6 6.01318 11.8381 6.01318 19C6.01318 26.1619 11.8512 32 19.0132 32C22.0552 32 24.8514 30.9383 27.0698 29.1777L35.4526 37.5605C35.5909 37.7045 35.7564 37.8194 35.9396 37.8986C36.1228 37.9778 36.3199 38.0196 36.5195 38.0216C36.7191 38.0237 36.917 37.9859 37.1018 37.9104C37.2865 37.835 37.4544 37.7234 37.5955 37.5823C37.7366 37.4412 37.8482 37.2734 37.9236 37.0886C37.999 36.9038 38.0368 36.7059 38.0348 36.5063C38.0328 36.3068 37.991 36.1096 37.9118 35.9264C37.8326 35.7432 37.7177 35.5777 37.5737 35.4395L29.1909 27.0566C30.9515 24.8382 32.0132 22.042 32.0132 19C32.0132 11.8381 26.1751 6 19.0132 6ZM1.51318 9C0.683184 9 0.0131836 9.67 0.0131836 10.5V12.1191C0.0131836 13.7191 1.84326 15.3201 4.34326 15.8301C4.90326 13.2401 6.13326 10.91 7.84326 9H1.51318ZM19.0132 9C24.5538 9 29.0132 13.4594 29.0132 19C29.0132 21.6864 27.9591 24.1133 26.2476 25.9062C26.1227 25.9975 26.0126 26.1075 25.9214 26.2324C24.1282 27.9451 21.7005 29 19.0132 29C13.4726 29 9.01318 24.5406 9.01318 19C9.01318 13.4594 13.4726 9 19.0132 9ZM30.1831 9C31.8931 10.91 33.1231 13.2401 33.6831 15.8301C36.1831 15.3201 38.0132 13.7191 38.0132 12.1191V10.5C38.0132 9.67 37.3432 9 36.5132 9H30.1831ZM19.0132 11C17.0802 11 15.5132 12.567 15.5132 14.5C15.5132 16.433 17.0802 18 19.0132 18C20.9462 18 22.5132 16.433 22.5132 14.5C22.5132 12.567 20.9462 11 19.0132 11ZM14.5132 20C13.6852 20 13.0132 20.672 13.0132 21.5V23.125C13.0132 25.058 15.6992 27 19.0132 27C22.3272 27 25.0132 25.058 25.0132 23.125V21.5C25.0132 20.672 24.3412 20 23.5132 20H14.5132ZM4.40381 22.4004C3.27381 22.9804 2.51318 24.15 2.51318 25.5C2.51318 27.43 4.08318 29 6.01318 29C6.56318 29 7.08248 28.8706 7.54248 28.6406C6.03248 26.8606 4.94381 24.7404 4.40381 22.4004ZM1.51318 31C0.683184 31 0.0131836 31.67 0.0131836 32.5V34.1191C0.0131836 36.0591 2.70318 38 6.01318 38C9.32318 38 12.0132 36.0591 12.0132 34.1191V32.5C12.0132 32.41 12.0037 32.33 11.9937 32.25H11.9839C11.2939 31.88 10.6429 31.46 10.0229 31H1.51318Z" fill="white"/>
</svg>
