<svg width="43" height="43" viewBox="0 0 43 43" fill="none" xmlns="http://www.w3.org/2000/svg">
<path d="M20.9979 0.000183188C20.6004 0.006393 20.2217 0.170118 19.9448 0.455396C19.668 0.740673 19.5157 1.12418 19.5214 1.52167V3.02167H3.52136H1.52136C1.3226 3.01886 1.12525 3.05558 0.940799 3.1297C0.756347 3.20382 0.588465 3.31386 0.446911 3.45343C0.305356 3.59299 0.192952 3.7593 0.11623 3.94269C0.0395089 4.12607 0 4.32288 0 4.52167C0 4.72046 0.0395089 4.91726 0.11623 5.10065C0.192952 5.28403 0.305356 5.45034 0.446911 5.58991C0.588465 5.72947 0.756347 5.83952 0.940799 5.91364C1.12525 5.98776 1.3226 6.02448 1.52136 6.02167H2.02136V27.5217C2.02136 30.5414 4.50159 33.0217 7.52136 33.0217H13.5956L10.1796 39.8517C10.0861 40.0285 10.0289 40.2222 10.0113 40.4214C9.99375 40.6205 10.0162 40.8212 10.0773 41.0116C10.1384 41.202 10.237 41.3783 10.3672 41.53C10.4974 41.6818 10.6567 41.806 10.8356 41.8953C11.0145 41.9846 11.2094 42.0373 11.409 42.0501C11.6085 42.063 11.8086 42.0359 11.9975 41.9703C12.1864 41.9048 12.3603 41.8021 12.509 41.6684C12.6576 41.5346 12.7781 41.3725 12.8632 41.1916L16.9471 33.0217H25.0956L29.1796 41.1916C29.2647 41.3725 29.3851 41.5346 29.5338 41.6684C29.6824 41.8021 29.8563 41.9048 30.0452 41.9703C30.2341 42.0359 30.4342 42.063 30.6338 42.0501C30.8333 42.0373 31.0283 41.9846 31.2072 41.8953C31.3861 41.806 31.5453 41.6818 31.6755 41.53C31.8057 41.3783 31.9043 41.202 31.9654 41.0116C32.0265 40.8212 32.049 40.6205 32.0314 40.4214C32.0139 40.2222 31.9566 40.0285 31.8632 39.8517L28.4471 33.0217H34.5214C37.5411 33.0217 40.0214 30.5414 40.0214 27.5217V6.02167H40.5214C40.7201 6.02448 40.9175 5.98776 41.1019 5.91364C41.2864 5.83952 41.4543 5.72947 41.5958 5.58991C41.7374 5.45034 41.8498 5.28403 41.9265 5.10065C42.0032 4.91726 42.0427 4.72046 42.0427 4.52167C42.0427 4.32288 42.0032 4.12607 41.9265 3.94269C41.8498 3.7593 41.7374 3.59299 41.5958 3.45343C41.4543 3.31386 41.2864 3.20382 41.1019 3.1297C40.9175 3.05558 40.7201 3.01886 40.5214 3.02167H38.5214H22.5214V1.52167C22.5242 1.3209 22.4868 1.1216 22.4112 0.935576C22.3357 0.749552 22.2235 0.58059 22.0815 0.438703C21.9394 0.296817 21.7703 0.184894 21.5842 0.109568C21.398 0.0342421 21.1987 -0.00295443 20.9979 0.000183188V0.000183188ZM5.02136 6.02167H20.7753C20.9363 6.04812 21.1006 6.04812 21.2616 6.02167H37.0214V27.5217C37.0214 28.9199 35.9196 30.0217 34.5214 30.0217H26.2401C26.1749 30.0108 26.109 30.0043 26.0428 30.0021C25.9526 30.0005 25.8624 30.0071 25.7733 30.0217H16.2714C16.1662 30.0045 16.0594 29.9986 15.953 30.0041C15.9 30.0071 15.8472 30.013 15.7948 30.0217H7.52136C6.12314 30.0217 5.02136 28.9199 5.02136 27.5217V6.02167ZM24.4979 11.0002C24.1004 11.0064 23.7217 11.1701 23.4448 11.4554C23.168 11.7407 23.0157 12.1242 23.0214 12.5217V23.5217C23.0186 23.7204 23.0553 23.9178 23.1294 24.1022C23.2035 24.2867 23.3136 24.4546 23.4531 24.5961C23.5927 24.7377 23.759 24.8501 23.9424 24.9268C24.1258 25.0035 24.3226 25.043 24.5214 25.043C24.7202 25.043 24.917 25.0035 25.1003 24.9268C25.2837 24.8501 25.45 24.7377 25.5896 24.5961C25.7292 24.4546 25.8392 24.2867 25.9133 24.1022C25.9875 23.9178 26.0242 23.7204 26.0214 23.5217V12.5217C26.0242 12.3209 25.9868 12.1216 25.9112 11.9356C25.8357 11.7496 25.7235 11.5806 25.5815 11.4387C25.4394 11.2968 25.2703 11.1849 25.0842 11.1096C24.898 11.0342 24.6987 10.997 24.4979 11.0002V11.0002ZM31.4979 14.0002C31.1004 14.0064 30.7217 14.1701 30.4448 14.4554C30.168 14.7407 30.0157 15.1242 30.0214 15.5217V23.5217C30.0186 23.7204 30.0553 23.9178 30.1294 24.1022C30.2035 24.2867 30.3136 24.4546 30.4531 24.5961C30.5927 24.7377 30.759 24.8501 30.9424 24.9268C31.1258 25.0035 31.3226 25.043 31.5214 25.043C31.7202 25.043 31.917 25.0035 32.1003 24.9268C32.2837 24.8501 32.45 24.7377 32.5896 24.5961C32.7292 24.4546 32.8392 24.2867 32.9133 24.1022C32.9875 23.9178 33.0242 23.7204 33.0214 23.5217V15.5217C33.0242 15.3209 32.9868 15.1216 32.9112 14.9356C32.8357 14.7496 32.7235 14.5806 32.5815 14.4387C32.4394 14.2968 32.2703 14.1849 32.0842 14.1096C31.898 14.0342 31.6987 13.997 31.4979 14.0002V14.0002ZM17.4979 17.0002C17.1004 17.0064 16.7217 17.1701 16.4448 17.4554C16.168 17.7407 16.0157 18.1242 16.0214 18.5217V23.5217C16.0186 23.7204 16.0553 23.9178 16.1294 24.1022C16.2035 24.2867 16.3136 24.4546 16.4531 24.5961C16.5927 24.7377 16.759 24.8501 16.9424 24.9268C17.1258 25.0035 17.3226 25.043 17.5214 25.043C17.7202 25.043 17.917 25.0035 18.1003 24.9268C18.2837 24.8501 18.45 24.7377 18.5896 24.5961C18.7292 24.4546 18.8392 24.2867 18.9133 24.1022C18.9875 23.9178 19.0242 23.7204 19.0214 23.5217V18.5217C19.0242 18.3209 18.9868 18.1216 18.9112 17.9356C18.8357 17.7496 18.7235 17.5806 18.5815 17.4387C18.4394 17.2968 18.2703 17.1849 18.0842 17.1096C17.898 17.0342 17.6987 16.997 17.4979 17.0002V17.0002ZM10.4979 20.0002C10.1004 20.0064 9.72168 20.1701 9.44482 20.4554C9.16797 20.7407 9.01566 21.1242 9.02136 21.5217V23.5217C9.01855 23.7204 9.05527 23.9178 9.12939 24.1022C9.20352 24.2867 9.31356 24.4546 9.45312 24.5961C9.59269 24.7377 9.759 24.8501 9.94238 24.9268C10.1258 25.0035 10.3226 25.043 10.5214 25.043C10.7202 25.043 10.917 25.0035 11.1003 24.9268C11.2837 24.8501 11.45 24.7377 11.5896 24.5961C11.7292 24.4546 11.8392 24.2867 11.9133 24.1022C11.9875 23.9178 12.0242 23.7204 12.0214 23.5217V21.5217C12.0242 21.3209 11.9868 21.1216 11.9112 20.9356C11.8357 20.7496 11.7235 20.5806 11.5815 20.4387C11.4394 20.2968 11.2703 20.1849 11.0842 20.1096C10.898 20.0342 10.6987 19.997 10.4979 20.0002V20.0002Z" fill="white"/>
</svg>
