<svg width="120" height="120" viewBox="0 0 120 120" fill="none" xmlns="http://www.w3.org/2000/svg">
<rect width="120" height="120" rx="6" fill="#145AFF"/>
<path d="M45.9504 26.0011C45.2347 26.022 44.5552 26.3206 44.0558 26.8336L33.1442 37.7452L27.744 32.345C27.4901 32.0806 27.1859 31.8694 26.8494 31.724C26.5128 31.5785 26.1506 31.5017 25.784 31.4979C25.4174 31.4942 25.0537 31.5637 24.7143 31.7022C24.3748 31.8408 24.0665 32.0457 23.8072 32.305C23.548 32.5642 23.343 32.8726 23.2045 33.2121C23.0659 33.5515 22.9964 33.9152 23.0001 34.2818C23.0039 34.6484 23.0807 35.0106 23.2262 35.3472C23.3716 35.6837 23.5828 35.9878 23.8472 36.2418L31.1958 43.5903C31.7126 44.1069 32.4134 44.3972 33.1442 44.3972C33.8749 44.3972 34.5757 44.1069 35.0926 43.5903L47.9526 30.7303C48.3501 30.3432 48.6215 29.845 48.7313 29.301C48.841 28.757 48.784 28.1926 48.5676 27.6815C48.3513 27.1705 47.9857 26.7367 47.5187 26.4368C47.0517 26.137 46.5051 25.9852 45.9504 26.0011ZM55.1899 33.3748C54.8247 33.3697 54.4622 33.4371 54.1233 33.5733C53.7844 33.7095 53.476 33.9116 53.216 34.168C52.9559 34.4244 52.7494 34.73 52.6085 35.0669C52.4675 35.4038 52.3949 35.7653 52.3949 36.1305C52.3949 36.4957 52.4675 36.8573 52.6085 37.1942C52.7494 37.5311 52.9559 37.8366 53.216 38.0931C53.476 38.3495 53.7844 38.5516 54.1233 38.6878C54.4622 38.824 54.8247 38.8914 55.1899 38.8863H93.7699C94.1351 38.8914 94.4976 38.824 94.8365 38.6878C95.1753 38.5516 95.4838 38.3495 95.7438 38.0931C96.0039 37.8366 96.2104 37.5311 96.3513 37.1942C96.4923 36.8573 96.5648 36.4957 96.5648 36.1305C96.5648 35.7653 96.4923 35.4038 96.3513 35.0669C96.2104 34.73 96.0039 34.4244 95.7438 34.168C95.4838 33.9116 95.1753 33.7095 94.8365 33.5733C94.4976 33.4371 94.1351 33.3697 93.7699 33.3748H55.1899ZM45.9504 50.8026C45.2347 50.8234 44.5552 51.122 44.0558 51.635L33.1442 62.5466L27.744 57.1464C27.4901 56.882 27.1859 56.6708 26.8494 56.5254C26.5128 56.3799 26.1506 56.3031 25.784 56.2994C25.4174 56.2956 25.0537 56.3651 24.7143 56.5037C24.3748 56.6423 24.0665 56.8472 23.8072 57.1064C23.548 57.3657 23.343 57.674 23.2045 58.0135C23.0659 58.3529 22.9964 58.7166 23.0001 59.0832C23.0039 59.4498 23.0807 59.812 23.2262 60.1486C23.3716 60.4851 23.5828 60.7893 23.8472 61.0432L31.1958 68.3918C31.7126 68.9084 32.4134 69.1986 33.1442 69.1986C33.8749 69.1986 34.5757 68.9084 35.0926 68.3918L47.9526 55.5318C48.3501 55.1446 48.6215 54.6464 48.7313 54.1024C48.841 53.5584 48.784 52.994 48.5676 52.4829C48.3513 51.9719 47.9857 51.5381 47.5187 51.2383C47.0517 50.9384 46.5051 50.7866 45.9504 50.8026V50.8026ZM55.1899 58.1763C54.8247 58.1711 54.4622 58.2386 54.1233 58.3747C53.7844 58.5109 53.476 58.7131 53.216 58.9695C52.9559 59.2259 52.7494 59.5314 52.6085 59.8683C52.4675 60.2052 52.3949 60.5668 52.3949 60.932C52.3949 61.2972 52.4675 61.6587 52.6085 61.9956C52.7494 62.3325 52.9559 62.6381 53.216 62.8945C53.476 63.1509 53.7844 63.353 54.1233 63.4892C54.4622 63.6254 54.8247 63.6928 55.1899 63.6877H93.7699C94.1351 63.6928 94.4976 63.6254 94.8365 63.4892C95.1753 63.353 95.4838 63.1509 95.7438 62.8945C96.0039 62.6381 96.2104 62.3325 96.3513 61.9956C96.4923 61.6587 96.5648 61.2972 96.5648 60.932C96.5648 60.5668 96.4923 60.2052 96.3513 59.8683C96.2104 59.5314 96.0039 59.2259 95.7438 58.9695C95.4838 58.7131 95.1753 58.5109 94.8365 58.3747C94.4976 58.2386 94.1351 58.1711 93.7699 58.1763H55.1899ZM45.9504 75.604C45.2347 75.6248 44.5552 75.9234 44.0558 76.4364L33.1442 87.3481L27.744 81.9479C27.4901 81.6834 27.1859 81.4723 26.8494 81.3268C26.5128 81.1813 26.1506 81.1045 25.784 81.1008C25.4174 81.097 25.0537 81.1665 24.7143 81.3051C24.3748 81.4437 24.0665 81.6486 23.8072 81.9078C23.548 82.1671 23.343 82.4755 23.2045 82.8149C23.0659 83.1543 22.9964 83.518 23.0001 83.8846C23.0039 84.2513 23.0807 84.6134 23.2262 84.95C23.3716 85.2865 23.5828 85.5907 23.8472 85.8446L31.1958 93.1932C31.7126 93.7098 32.4134 94 33.1442 94C33.8749 94 34.5757 93.7098 35.0926 93.1932L47.9526 80.3332C48.3501 79.946 48.6215 79.4478 48.7313 78.9038C48.841 78.3598 48.784 77.7954 48.5676 77.2844C48.3513 76.7733 47.9857 76.3395 47.5187 76.0397C47.0517 75.7399 46.5051 75.588 45.9504 75.604V75.604ZM55.1899 82.9777C54.8247 82.9725 54.4622 83.04 54.1233 83.1761C53.7844 83.3123 53.476 83.5145 53.216 83.7709C52.9559 84.0273 52.7494 84.3328 52.6085 84.6697C52.4675 85.0066 52.3949 85.3682 52.3949 85.7334C52.3949 86.0986 52.4675 86.4602 52.6085 86.7971C52.7494 87.134 52.9559 87.4395 53.216 87.6959C53.476 87.9523 53.7844 88.1545 54.1233 88.2906C54.4622 88.4268 54.8247 88.4943 55.1899 88.4891H93.7699C94.1351 88.4943 94.4976 88.4268 94.8365 88.2906C95.1753 88.1545 95.4838 87.9523 95.7438 87.6959C96.0039 87.4395 96.2104 87.134 96.3513 86.7971C96.4923 86.4602 96.5648 86.0986 96.5648 85.7334C96.5648 85.3682 96.4923 85.0066 96.3513 84.6697C96.2104 84.3328 96.0039 84.0273 95.7438 83.7709C95.4838 83.5145 95.1753 83.3123 94.8365 83.1761C94.4976 83.04 94.1351 82.9725 93.7699 82.9777H55.1899Z" fill="white"/>
</svg>
