<svg width="49" height="12" viewBox="0 0 49 12" fill="none" xmlns="http://www.w3.org/2000/svg">
<path d="M4.70065 0C3.21647 0 2.14845 1.06938 1.52682 2.09766C0.905185 3.12593 0.499908 4.29387 0.101037 5.4082C0.0287893 5.59497 -0.00533507 5.79431 0.00067607 5.99447C0.00668721 6.19463 0.0527122 6.39156 0.136037 6.57365C0.219363 6.75575 0.338302 6.91931 0.485842 7.05471C0.633383 7.19011 0.806538 7.29459 0.9951 7.36201C1.18366 7.42943 1.38381 7.45841 1.58375 7.44725C1.78369 7.43609 1.97938 7.38502 2.15926 7.29703C2.33915 7.20905 2.4996 7.08594 2.63116 6.93497C2.76272 6.78399 2.86271 6.6082 2.92526 6.41797C3.32139 5.3113 3.71661 4.27337 4.09323 3.65039C4.46984 3.02741 4.59682 3 4.70065 3C4.80642 3 4.94085 3.03158 5.32369 3.67383C5.70653 4.31608 6.10498 5.38088 6.50729 6.50586C6.90959 7.63084 7.31604 8.81612 7.93893 9.86133C8.56182 10.9065 9.63445 12 11.1381 12C12.6418 12 13.7144 10.9065 14.3374 9.86133C14.9603 8.81613 15.3666 7.63086 15.769 6.50586C16.1714 5.38086 16.5698 4.31613 16.9526 3.67383C17.3354 3.03152 17.4703 3 17.5756 3C17.681 3 17.8139 3.03152 18.1967 3.67383C18.5796 4.31613 18.978 5.38086 19.3803 6.50586C19.7827 7.63086 20.189 8.81613 20.812 9.86133C21.435 10.9065 22.5075 12 24.0112 12C25.5149 12 26.5894 10.9065 27.2124 9.86133C27.8353 8.81613 28.2397 7.63086 28.6421 6.50586C29.0444 5.38086 29.4448 4.31613 29.8276 3.67383C30.2104 3.03152 30.3434 3 30.4487 3C30.554 3 30.6889 3.03152 31.0717 3.67383C31.4546 4.31613 31.853 5.38086 32.2553 6.50586C32.6577 7.63086 33.064 8.81613 33.687 9.86133C34.3099 10.9065 35.3825 12 36.8862 12C38.3899 12 39.4623 10.9066 40.0854 9.86133C40.7085 8.81608 41.1147 7.63088 41.5171 6.50586C41.9194 5.38084 42.3179 4.31612 42.7006 3.67383C43.0834 3.03154 43.2184 3 43.3237 3C43.4288 3 43.5562 3.0268 43.9331 3.65039C44.3099 4.27398 44.7049 5.3142 45.101 6.42188C45.1636 6.61211 45.2636 6.7879 45.3951 6.93888C45.5267 7.08985 45.6871 7.21297 45.867 7.30095C46.0469 7.38894 46.2426 7.44001 46.4425 7.45117C46.6425 7.46233 46.8426 7.43335 47.0312 7.36593C47.2198 7.29851 47.3929 7.19402 47.5405 7.05863C47.688 6.92323 47.8069 6.75966 47.8903 6.57757C47.9736 6.39547 48.0196 6.19854 48.0256 5.99838C48.0316 5.79821 47.9975 5.59887 47.9253 5.41211C47.5264 4.29678 47.1214 3.12877 46.4995 2.09961C45.8776 1.07045 44.8086 0 43.3237 0C41.82 0 40.7474 1.09346 40.1245 2.13867C39.5016 3.18388 39.0951 4.36916 38.6928 5.49414C38.2905 6.61912 37.8921 7.68392 37.5092 8.32617C37.1264 8.96842 36.992 9 36.8862 9C36.7809 9 36.646 8.96848 36.2631 8.32617C35.8803 7.68387 35.4819 6.61914 35.0796 5.49414C34.6772 4.36914 34.2709 3.18387 33.6479 2.13867C33.0249 1.09348 31.9524 0 30.4487 0C28.945 0 27.8725 1.09348 27.2495 2.13867C26.6265 3.18387 26.2202 4.36914 25.8178 5.49414C25.4155 6.61914 25.0171 7.68387 24.6342 8.32617C24.2514 8.96848 24.1165 9 24.0112 9C23.9059 9 23.7729 8.96848 23.3901 8.32617C23.0073 7.68387 22.6089 6.61914 22.2065 5.49414C21.8041 4.36914 21.3978 3.18387 20.7749 2.13867C20.1519 1.09348 19.0793 0 17.5756 0C16.072 0 14.9994 1.09348 14.3764 2.13867C13.7535 3.18387 13.3472 4.36914 12.9448 5.49414C12.5424 6.61914 12.144 7.68387 11.7612 8.32617C11.3784 8.96848 11.2435 9 11.1381 9C11.0328 9 10.8979 8.96846 10.5151 8.32617C10.1323 7.68388 9.73383 6.61916 9.33151 5.49414C8.92918 4.36912 8.52489 3.18392 7.90182 2.13867C7.27875 1.09342 6.20437 0 4.70065 0Z" fill="white"/>
</svg>
